<?xml version="1.0" standalone="no"?>
<!DOCTYPE svg PUBLIC "-//W3C//DTD SVG 1.1//EN" "http://www.w3.org/Graphics/SVG/1.1/DTD/svg11.dtd" >
<!--
2013-9-30: Created.
-->
<svg>
<metadata>
Created by iconfont
</metadata>
<defs>

<font id="iconfont" horiz-adv-x="1024" >
  <font-face
    font-family="iconfont"
    font-weight="500"
    font-stretch="normal"
    units-per-em="1024"
    ascent="896"
    descent="-128"
  />
    <missing-glyph />
    
    <glyph glyph-name="x" unicode="x" horiz-adv-x="1001"
d="M281 543q-27 -1 -53 -1h-83q-18 0 -36.5 -6t-32.5 -18.5t-23 -32t-9 -45.5v-76h912v41q0 16 -0.5 30t-0.5 18q0 13 -5 29t-17 29.5t-31.5 22.5t-49.5 9h-133v-97h-438v97zM955 310v-52q0 -23 0.5 -52t0.5 -58t-10.5 -47.5t-26 -30t-33 -16t-31.5 -4.5q-14 -1 -29.5 -0.5
t-29.5 0.5h-32l-45 128h-439l-44 -128h-29h-34q-20 0 -45 1q-25 0 -41 9.5t-25.5 23t-13.5 29.5t-4 30v167h911zM163 247q-12 0 -21 -8.5t-9 -21.5t9 -21.5t21 -8.5q13 0 22 8.5t9 21.5t-9 21.5t-22 8.5zM316 123q-8 -26 -14 -48q-5 -19 -10.5 -37t-7.5 -25t-3 -15t1 -14.5
t9.5 -10.5t21.5 -4h37h67h81h80h64h36q23 0 34 12t2 38q-5 13 -9.5 30.5t-9.5 34.5q-5 19 -11 39h-368zM336 498v228q0 11 2.5 23t10 21.5t20.5 15.5t34 6h188q31 0 51.5 -14.5t20.5 -52.5v-227h-327z" />
    

    
    <glyph glyph-name="chengshijiantou" unicode="&#59139;" d="M880.689118 352.431698c0 7.572299-3.479165 15.246927-9.107225 21.181973-0.409313 0.511642-151.445988 149.092435-151.445988 149.092435-12.484061 12.484061-32.64275 12.484061-45.024483 0-12.484061-12.484061-12.484061-32.64275 0-45.024483l96.290996-93.425802L152.008794 384.255821c-18.112122 0-32.745078-16.167882-32.745078-31.824123 0-15.656241 14.632957-31.824123 32.745078-31.824123l695.832917 0c13.302688-0.102328 22.716898 9.618867 22.716898 9.721195C876.80064 336.263815 880.689118 344.45008499999994 880.689118 352.431698z"  horiz-adv-x="1024" />

    
    <glyph glyph-name="biaoji" unicode="&#58929;" d="M696.87391 876.568355a77.405396 77.405396 0 0 1-110.326778-8.029605L92.7264 376.48452999999995a110.969147 110.969147 0 0 1-30.994277-59.740264L0.546529-84.73600399999998a36.936185 36.936185 0 0 1 42.717501-42.717501l404.531521 61.827962a110.969147 110.969147 0 0 1 59.41908 30.673092l497.835535 495.426654a77.565988 77.565988 0 0 1 0 110.326778zM73.776531-51.97521400000005l53.798356 374.500796 1.445329 1.284737 324.55665-323.75369-1.766513-1.445329z m421.554284 106.311975L183.300349 365.082491l462.505271 460.578166L957.675494 514.914927z"  horiz-adv-x="1024" />

    
    <glyph glyph-name="dianhua" unicode="&#58930;" d="M995.123165 167.83218799999997c19.039497-19.039497 29.119231-35.839054 28.79924-79.997887C1024.082401 31.99577499999998 898.485717-128 737.849959-128 653.37219-128 478.336812-57.92185099999995 272.102258 147.99271199999998 54.508004 366.066954 2.189385 546.542188 0.10944 609.740519-4.850429 758.3765940000001 160.105215 894.532999 218.503673 895.972961c47.998733 0.959975 70.718133-23.83937 93.91752-47.998733a1388.763328 1388.763328 0 0 0 117.436899-167.675572c25.599324-47.998733 28.79924-71.358116 28.799239-86.077727a93.597528 93.597528 0 0 0-45.4388-78.717922 439.988382 439.988382 0 0 0-55.038546-28.959235 839.817824 839.817824 0 0 1 112.797021-139.836307 899.336252 899.336252 0 0 1 143.996198-115.996937 437.588445 437.588445 0 0 0 28.799239 54.558559 93.597528 93.597528 0 0 0 78.717922 45.278804c14.559616 0 37.599007-3.199916 86.077727-28.799239 29.759214-15.999578 139.836307-94.397507 165.755623-115.676945 7.039814-5.599852 14.239624-11.679692 20.79945-18.239519z m-674.0622 28.79924C526.49554-8.803147999999965 676.571577-62.40173200000004 734.650044-60.32178699999997c134.07646 4.479882 220.79417 137.436371 222.074135 156.475868 0 10.399725-3.679903 19.519485-29.439222 40.638927s-129.596578 93.597528-151.995987 105.27722c-35.359066 18.719506-50.398669 21.439434-56.158517 21.439434s-13.759637 0-25.919315-17.599536a629.423379 629.423379 0 0 1-30.079206-58.878445 50.878656 50.878656 0 0 0-70.238145-22.7194 904.616112 904.616112 0 0 0-170.395501 134.07646 840.297811 840.297811 0 0 0-131.03654 167.195585 50.878656 50.878656 0 0 0 23.199388 69.598162 635.023231 635.023231 0 0 1 59.038441 30.079206c17.599535 12.159679 17.599535 22.239413 17.599535 25.919315s-2.719928 20.639455-21.439434 55.998521a1341.884566 1341.884566 0 0 1-103.677262 149.916042c-26.239307 27.359278-34.0791 31.999155-44.638821 31.999155-19.999472-0.799979-151.515999-84.157778-157.435843-219.354208-1.599958-40.638927 47.998733-203.514626 256.953215-413.109091z"  horiz-adv-x="1024" />

    
    <glyph glyph-name="chakanxinxi" unicode="&#58931;" d="M102.08 797.6H16a16 16 0 0 1-16-16v-86.08a16 16 0 0 1 16-16h86.08a16 16 0 0 1 16 16V781.6a16 16 0 0 1-16 16z m905.92 0H252.32a16 16 0 0 1-16-16v-86.08a16 16 0 0 1 16-16H1008a16 16 0 0 1 16 16V781.6a16 16 0 0 1-16 16zM102.08 443.04H16a16 16 0 0 1-16-16v-86.08a16 16 0 0 1 16-16h86.08a16 16 0 0 1 16 16v86.08a16 16 0 0 1-16 16z m905.92 0H252.32a16 16 0 0 1-16-16v-86.08a16 16 0 0 1 16-16H1008a16 16 0 0 1 16 16v86.08a16 16 0 0 1-16 16zM102.08 88.63999999999999H16a16 16 0 0 1-16-16v-86.08a16 16 0 0 1 16-16h86.08a16 16 0 0 1 16 16v86.08a16 16 0 0 1-16 16z m905.92 0H252.32a16 16 0 0 1-16-16v-86.08a16 16 0 0 1 16-16H1008a16 16 0 0 1 16 16v86.08a16 16 0 0 1-16 16z"  horiz-adv-x="1024" />

    
    <glyph glyph-name="beizhu" unicode="&#58934;" d="M380.225887 282.41879100000006c12.281859-12.281859 31.728136-12.281859 44.009995 0L981.525237 842.778611c12.281859 12.281859 12.281859 31.728136 0 44.009995-12.281859 12.281859-31.728136 12.281859-44.009995 0L380.225887 326.42878599999995c-12.281859-12.281859-12.281859-31.728136 0-44.009995M992.271864 584.8595700000001c-16.887556 0-31.216392-13.817091-31.216392-31.216392v-557.801099c0-34.286857-27.634183-61.921039-61.921039-61.92104H123.842079c-34.286857 0-61.921039 27.634183-61.92104 61.92104V770.622689c0 34.286857 27.634183 61.921039 61.92104 61.921039h527.096452c17.3993 0 31.216392 13.817091 31.216392 31.216392 0 16.887556-13.817091 31.216392-31.216392 31.216392h-557.8011c-51.174413 0-93.137431-41.451274-93.137431-93.137432v-836.701649c0-51.174413 41.451274-93.137431 93.137431-93.137431h837.213394c51.174413 0 93.137431 41.451274 93.137431 93.137431v588.505747c0 17.3993-13.817091 31.216392-31.216392 31.216392"  horiz-adv-x="1024" />

    
    <glyph glyph-name="fujian" unicode="&#58937;" d="M938.70496 389.282059l-3.519986-3.359987-405.438353-388.95842-2.879988-2.559989a267.998911 267.998911 0 0 0-363.518523 2.559989 242.079017 242.079017 0 0 0-2.239991 348.958583l464.638112 446.398186a187.839237 187.839237 0 0 0 257.278955 0 169.279312 169.279312 0 0 0 0-246.558998L415.987083 98.08324200000004a102.399584 102.399584 0 0 0-137.439441 3.359986 92.319625 92.319625 0 0 0-2.879989 131.839464l1.759993 2.079992 1.119996 1.119995 406.878347 390.078416a25.599896 25.599896 0 0 1 0 37.279848 28.319885 28.319885 0 0 1-38.879842 0l-405.598353-388.79842-1.759992-1.599994-1.119996-1.119995-4.479982-4.319983a26.559892 26.559892 0 0 1-4.479982-5.759976A143.999415 143.999415 0 0 1 239.987798 64.00337999999999a159.039354 159.039354 0 0 1 213.919131-4.479982h0.799997l467.038103 447.99818a220.479104 220.479104 0 0 1 0 321.278695 244.639006 244.639006 0 0 1-335.198639 0L354.387334 606.4011760000001l-159.99935-153.439376L122.068277 384.00208a293.438808 293.438808 0 0 1 2.719989-423.198281A319.9987 319.9987 0 0 1 346.227367-127.99584000000004a320.798697 320.798697 0 0 1 216.319121 82.399665l1.439994 1.119996 1.119995 1.119995 3.039988 2.719989L974.224815 348.802223l1.919993 1.919992a25.599896 25.599896 0 0 1 1.119995 37.279849 28.319885 28.319885 0 0 1-38.879842 1.119995z"  horiz-adv-x="1024" />

    
    <glyph glyph-name="ermai" unicode="&#58938;" d="M1023.98608 345.607482a191.99739 191.99739 0 0 0-148.637979-186.717462 383.99478 383.99478 0 0 0-317.595683-258.23649A51.039306 51.039306 0 0 0 511.99304-127.98608000000002h-99.518647a53.119278 53.119278 0 0 0-54.079265 47.999347 51.199304 51.199304 0 0 0 51.199304 53.919267H511.99304A51.199304 51.199304 0 0 0 554.552462-47.987168a332.315483 332.315483 0 0 1 263.676415 201.59726H799.989125a31.999565 31.999565 0 0 0-31.999565 31.999565v319.99565a31.999565 31.999565 0 0 0 31.999565 31.999565c15.999783 0 35.359519 0 43.519409-1.43998a332.47548 332.47548 0 0 1-663.190985 0c4.799935 0 24.959661 0.959987 43.35941 1.119984a31.999565 31.999565 0 0 0 31.999565-31.999565v-319.99565a31.999565 31.999565 0 0 0-31.999565-31.999565H191.99739a191.99739 191.99739 0 0 0-63.99913 372.794933 383.99478 383.99478 0 0 0 766.54958 0A191.99739 191.99739 0 0 0 1023.98608 345.607482z m-972.786776 0a140.798086 140.798086 0 0 1 140.798086-140.798086 113.27846 113.27846 0 0 1 12.799826 1.119985V485.285583a113.27846 113.27846 0 0 1-12.799826 1.119985 140.798086 140.798086 0 0 1-140.798086-140.798086zM831.98869 486.405568a113.27846 113.27846 0 0 1-12.799826-1.119985v-279.356202a113.27846 113.27846 0 0 1 12.799826-1.119985 140.798086 140.798086 0 0 1 0 281.596172z"  horiz-adv-x="1024" />

    
    <glyph glyph-name="guanbi" unicode="&#58940;" d="M557.16534 397.989071L985.630601 826.454333c15.98751 15.98751 15.98751 41.567525 0 57.555035S944.063076 899.996877 928.075566 884.009368L499.610304 455.544106 69.546292 884.009368c-15.98751 15.98751-41.567525 15.98751-57.555035 0s-15.98751-41.567525 0-57.555035l428.465261-428.465262L11.991257-32.07494099999997c-15.98751-15.98751-15.98751-41.567525 0-57.555036 7.993755-7.993755 17.586261-11.191257 28.777517-11.191256s19.185012 4.796253 28.777518 11.191256l428.465261 428.465262L928.075566-89.62997700000005c7.993755-7.993755 17.586261-11.191257 28.777518-11.191256s19.185012 4.796253 28.777517 11.191256c15.98751 15.98751 15.98751 41.567525 0 57.555036L557.16534 397.989071z"  horiz-adv-x="1024" />

    
    <glyph glyph-name="quxiaoguanlian" unicode="&#58952;" d="M569.814201 203.831092a40.037535 40.037535 0 0 1-52.208946-7.847357l-173.602753-196.984673a154.064435 154.064435 0 0 0-213.319987-16.015014 153.904285 153.904285 0 0 0-12.972162 218.444792l171.200501 193.78167a37.314983 37.314983 0 0 1-6.886456 55.411949 40.037535 40.037535 0 0 1-52.208946-7.847357L56.212699 245.79042900000002a224.210197 224.210197 0 0 1 22.58117-318.37848 231.096653 231.096653 0 0 1 322.862684 22.260869l174.723804 198.746325a37.314983 37.314983 0 0 1-6.566156 55.411949zM989.88802 784.855802a220.847044 220.847044 0 0 1-310.691273 75.751017l-222.288395-144.135127a39.877385 39.877385 0 0 1-11.690961-53.810447 36.834532 36.834532 0 0 1 51.728496-12.651861l222.288395 144.135126A147.338129 147.338129 0 0 0 926.308414 743.857366a160.150141 160.150141 0 0 0-46.923991-215.241789l-222.928996-144.135127a39.877385 39.877385 0 0 1-11.69096-53.810447 36.834532 36.834532 0 0 1 51.728495-12.651861l222.288396 144.135127a240.225211 240.225211 0 0 1 71.106662 322.702533zM344.643103 247.23177999999996a41.959337 41.959337 0 0 1 55.572099 4.484204l283.946199 283.786049a40.357835 40.357835 0 0 1-3.042852 59.896153 41.959337 41.959337 0 0 1-55.572099-4.484204L341.60025 307.127932a40.357835 40.357835 0 0 1 3.042853-59.896152zM28.987175 465.356272a16.015014 16.015014 0 0 1 24.663122-8.968408l147.17798 78.313418a10.089459 10.089459 0 0 1-5.124805 18.737567l-164.794495 8.327807a16.015014 16.015014 0 0 1-16.015014-22.100719z m6.245856 259.763528l196.824523-72.387864a10.089459 10.089459 0 0 1 11.05036 16.015014l-136.12762 156.947138a16.015014 16.015014 0 0 1-27.065374-1.121051L26.584923 750.263372a16.015014 16.015014 0 0 1 8.648108-25.143572z m290.672505-26.905224a10.089459 10.089459 0 0 1 19.218017 0l56.69315 160.150141a16.015014 16.015014 0 0 1-13.933062 21.780419L318.37848 885.590241a16.015014 16.015014 0 0 1-18.096966-20.659368z"  horiz-adv-x="1024" />

    
    <glyph glyph-name="shuaxin" unicode="&#58954;" d="M977.6 406.4c-16 0-32-14.4-32-32 0-243.2-200-443.2-443.2-443.2S60.8 132.79999999999995 60.8 376c0 244.8 200 443.2 443.2 443.2 129.6 0 251.2-56 334.4-152h-153.6c-16 0-32-12.8-32-32 0-16 14.4-32 32-32H897.6c16 0 32 14.4 32 32V864c0 16-14.4 32-32 32s-32-12.8-32-32v-139.2C771.2 822.4 641.6 881.6 500.8 881.6 227.2 880 0 654.4 0 376S227.2-128 504-128C782.4-128 1008 99.20000000000005 1008 376c1.6 16-12.8 30.4-30.4 30.4z"  horiz-adv-x="1024" />

    
    <glyph glyph-name="sousuo" unicode="&#58956;" d="M707.2 201.60000000000002c54.4 67.2 86.4 150.4 86.4 243.2C793.6 654.4 624 825.6 411.2 825.6 203.2 827.2 32 654.4 32 446.4 32 233.60000000000002 203.2 64 414.4 64c91.2 0 174.4 32 238.4 84.8L865.6-64l54.4 54.4-212.8 211.2z m-292.8-64c-168 0-307.2 137.6-307.2 307.2S243.2 753.6 414.4 753.6c168 0 307.2-137.6 307.2-307.2-1.6-171.2-139.2-308.8-307.2-308.8z"  horiz-adv-x="1024" />

    
    <glyph glyph-name="tixingweizhi" unicode="&#58957;" d="M529.6 832c-80 0-147.2-20.8-195.2-65.6s-78.4-105.6-89.6-188.8l110.4-12.8c11.2 60.8 30.4 105.6 60.8 136s70.4 43.2 115.2 43.2c46.4 0 86.4-17.6 121.6-46.4 32-32 49.6-67.2 49.6-110.4 0-24-6.4-44.8-17.6-64-11.2-19.2-36.8-46.4-72-78.4-38.4-33.6-64-57.6-78.4-73.6-19.2-24-33.6-46.4-43.2-70.4-12.8-32-19.2-67.2-19.2-110.4 0-6.4 0-46.4 1.6-59.2h104c0 43.2 1.6 102.4 8 121.6 4.8 19.2 12.8 36.8 24 51.2 11.2 14.4 33.6 38.4 67.2 70.4 52.8 46.4 86.4 84.8 105.6 118.4 17.6 32 27.2 67.2 27.2 105.6 0 65.6-25.6 123.2-76.8 169.6-48 40-116.8 64-203.2 64zM473.6 20.799999999999955h104v-104h-104v104z"  horiz-adv-x="1024" />

    
    <glyph glyph-name="tuichu" unicode="&#58958;" d="M783.92178 747.402745a31.990798 31.990798 0 0 1-36.149601-52.94477 415.880369 415.880369 0 1 0-471.544358 0A31.990798 31.990798 0 0 1 240.07822 747.242791a479.861965 479.861965 0 1 1 543.84356 0zM512 448.128833a31.990798 31.990798 0 0 1 31.990798 31.990798V864.009202a31.990798 31.990798 0 0 1-63.981596 0v-383.889571a31.990798 31.990798 0 0 1 31.990798-31.990798z"  horiz-adv-x="1024" />

    
    <glyph glyph-name="duanxin1" unicode="&#58966;" d="M512 8.480000000000018a590.72 590.72 0 0 0-103.36 9.12L204.8-128V97.91999999999996C80 178.88 0 307.20000000000005 0 452.32 0 697.28 229.28 896 512 896s512-198.72 512-443.68-229.28-443.84-512-443.84z m0 819.2c-245.12 0-443.68-168-443.68-375.36 0-132.8 81.76-249.28 204.8-316v-128l112 84a518.4 518.4 0 0 1 126.88-16c245.12 0 443.68 168.16 443.68 375.52S757.12 827.6800000000001 512 827.6800000000001z m204.8-307.2H307.2a34.08 34.08 0 0 0 0 68.32h409.6a34.08 34.08 0 0 0 0-68.32zM375.52 384h272.96a34.08 34.08 0 1 0 0-68.32H375.52a34.08 34.08 0 1 0 0 68.32z"  horiz-adv-x="1024" />

    
    <glyph glyph-name="baochi" unicode="&#58967;" d="M260 48h112V720h-112z m392 672v-672h112V720z"  horiz-adv-x="1024" />

    
    <glyph glyph-name="chulishichang" unicode="&#58969;" d="M923.2-38.39999999999998H864V48c0 134.4-67.2 254.4-172.8 320C796.8 433.6 864 553.6 864 688V796.8H923.2c20.8 0 38.4 19.2 38.4 41.6S945.6 880 923.2 880H100.8C80 880 62.4 860.8 62.4 838.4 62.4 816 80 796.8 100.8 796.8h62.4V688c0-134.4 67.2-254.4 172.8-320-105.6-65.6-172.8-185.6-172.8-320v-86.4H100.8c-20.8 0-38.4-19.2-38.4-41.6 0-22.4 17.6-41.6 38.4-41.6h822.4c20.8 0 38.4 19.2 38.4 41.6 0 22.4-17.6 41.6-38.4 41.6m-136 0H241.6V48c0 131.2 83.2 246.4 204.8 280 4.8 1.6 9.6 3.2 14.4 6.4 0 0 1.6 0 1.6 1.6 1.6 0 1.6 1.6 3.2 3.2l1.6 1.6 1.6 1.6s0 1.6 1.6 1.6c0 0 0 1.6 1.6 1.6 0 1.6 1.6 1.6 1.6 3.2v1.6 1.6 1.6c3.2 8 4.8 17.6 1.6 27.2-1.6 8-6.4 16-12.8 20.8h-1.6c-3.2 3.2-8 4.8-12.8 6.4-121.6 32-206.4 147.2-206.4 280V796.8h545.6V688c0-132.8-84.8-248-206.4-280-19.2-4.8-32-24-28.8-44.8v-11.2c1.6-3.2 1.6-4.8 3.2-6.4 0 0 0-1.6 1.6-1.6v-3.2c3.2-3.2 8-6.4 12.8-9.6H574.4c121.6-32 206.4-147.2 206.4-280v-89.6h6.4m0 0"  horiz-adv-x="1024" />

    
    <glyph glyph-name="zhuanjie" unicode="&#58970;" d="M772.8 283.20000000000005c3.2-1.6 6.4-3.2 11.2-3.2 6.4 0 12.8 3.2 16 9.6 3.2 4.8 3.2 9.6 3.2 14.4-1.6 4.8-4.8 9.6-8 12.8-24 16-51.2 30.4-78.4 41.6 4.8 3.2 9.6 8 12.8 11.2 27.2 27.2 49.6 59.2 65.6 94.4 16 38.4 25.6 78.4 25.6 120C820.8 750.4 686.4 884.8 520 884.8 355.2 884.8 219.2 750.4 219.2 584c0-86.4 38.4-169.6 104-227.2C134.4 278.4 12.8 96 12.8-108.79999999999995c0-9.6 8-19.2 19.2-19.2s19.2 9.6 19.2 19.2c0 195.2 123.2 371.2 308.8 436.8 48-30.4 102.4-46.4 158.4-46.4s112 16 158.4 46.4c35.2-11.2 67.2-27.2 96-44.8z m-512 300.8c0 142.4 115.2 259.2 259.2 259.2s259.2-116.8 259.2-259.2c0-35.2-8-70.4-20.8-104-12.8-30.4-32-57.6-56-81.6-48-48-113.6-73.6-180.8-73.6-145.6 0-260.8 116.8-260.8 259.2zM1022.4 33.60000000000002c-1.6 3.2-3.2 4.8-4.8 8l-129.6 129.6c-9.6 9.6-24 9.6-32 0-9.6-9.6-9.6-24 0-32l91.2-91.2H678.4c-12.8 0-22.4-9.6-22.4-22.4 0-12.8 9.6-22.4 22.4-22.4h267.2l-91.2-91.2c-9.6-9.6-9.6-24 0-32 9.6-9.6 24-9.6 32 0l129.6 129.6c1.6 1.6 3.2 4.8 4.8 8 3.2 4.8 3.2 11.2 1.6 16z"  horiz-adv-x="1024" />

    
    <glyph glyph-name="liuzhuan" unicode="&#58973;" d="M1024 304H0l284.8 284.8v-227.2H1024V304z"  horiz-adv-x="1024" />

    
    <glyph glyph-name="wancheng" unicode="&#58974;" d="M933.1832 525.44A29.28 29.28 0 0 1 904.0632 496v-518.72a21.28 21.28 0 0 0-19.52-21.12H80.0632a19.52 19.52 0 0 0-19.52 19.52V790.72A21.28 21.28 0 0 0 80.0632 811.84h512a30.08 30.08 0 0 1 30.08 30.08A30.08 30.08 0 0 1 592.0632 872H76.3832A72 72 0 0 1 0.0632 797.12v-823.04a78.08 78.08 0 0 1 77.92-78.08h808.16a74.72 74.72 0 0 1 76.32 78.08V496a29.28 29.28 0 0 1-29.28 29.28z m-29.28 0M581.3432 342.08000000000004l432 434.72a35.68 35.68 0 0 1 0 50.4 35.52 35.52 0 0 1-50.4 0L558.3032 421.44 340.0632 640a35.68 35.68 0 0 1-50.4 0 35.68 35.68 0 0 1 0-50.4l245.6-247.52a32 32 0 0 1 46.08 0z"  horiz-adv-x="1024" />

    
    <glyph glyph-name="dongzuobiangeng" unicode="&#58976;" d="M1017.6 419.2H0v6.4h987.2v32l36.8-36.8h-6.4z"  horiz-adv-x="1024" />

    
    <glyph glyph-name="daochu" unicode="&#58977;" d="M992 512a32 32 0 0 1 32 32V864a32 32 0 0 1-32 32H672a32 32 0 0 1 0-64h240L444.8 356.79999999999995a36.8 36.8 0 0 1 0-49.6 34.72 34.72 0 0 1 48 0L960 784v-240a32 32 0 0 1 32-32z m-64-192a32 32 0 0 1-32-32v-320a32 32 0 0 0-32-32H96a32 32 0 0 0-32 32V736a32 32 0 0 0 32 32h320a32 32 0 0 1 0 64H64a64 64 0 0 1-64-64v-832a64 64 0 0 1 64-64h832a64 64 0 0 1 64 64V288a32 32 0 0 1-32 32z"  horiz-adv-x="1029" />

    
    <glyph glyph-name="hebing" unicode="&#58980;" d="M128.179916-76.82398899999998V127.88005599999997c15.992504 10.235202 255.880056 153.368109 255.880056 153.368109l102.192097-51.176011-255.880056-153.368109v-153.528034a55.014212 55.014212 0 0 0-51.176011-51.176011A54.854287 54.854287 0 0 0 128.179916-76.82398899999998zM512 884.005622l127.940028-194.308917a34.064032 34.064032 0 0 0 0-51.176012h-102.352022v-204.384194L895.820084 229.75230399999998V-76.82398899999998a51.176011 51.176011 0 0 0-102.192097 0v255.880056L435.395908 383.76011200000005V639.640169h-102.352022a34.064032 34.064032 0 0 0 0 51.176011L465.94159 884.005622c15.992504 15.992504 35.823208 15.992504 46.05841 0z m0 0"  horiz-adv-x="1024" />

    
    <glyph glyph-name="wenjian" unicode="&#58981;" d="M960 706.88H527.04a32 32 0 0 0-22.88 9.6L422.72 800a94.08 94.08 0 0 1-67.84 29.12H64a64 64 0 0 1-64-64v-762.24a64 64 0 0 1 64-64h896a64 64 0 0 1 64 64v640a64 64 0 0 1-64 64z m0-673.6a30.08 30.08 0 0 0-29.76-30.4H93.76A30.08 30.08 0 0 0 64 33.27999999999997V452.16h896zM64 516.1600000000001V734.72a30.08 30.08 0 0 0 29.76 30.4h261.12a29.28 29.28 0 0 0 21.28-9.28l93.6-94.24a64 64 0 0 1 45.44-18.88h415.04a30.08 30.08 0 0 0 29.76-30.4v-96z"  horiz-adv-x="1024" />

    
    <glyph glyph-name="piliang" unicode="&#58983;" d="M987.75072 851.2a66.24 66.24 0 0 1-59.2-1.92L34.79072 388.16a64 64 0 0 1 8.32-117.44l265.92-92.8a40 40 0 0 1 51.04 24.64 40 40 0 0 1-24 50.88l-230.72 80 752 387.68-420.64-536.64a39.04 39.04 0 0 1-2.4-3.68c0-1.12-1.12-2.24-1.6-3.52l-1.28-2.72v-2.08a38.24 38.24 0 0 1-1.12-4.8V-50.24000000000001a39.04 39.04 0 0 1 39.04-39.04h2.08a39.04 39.04 0 0 1 39.04 39.04v153.28l297.6-105.76a72.16 72.16 0 0 1 96 56l119.04 729.44a64 64 0 0 1-35.36 68.48zM823.75072 76l-289.76 102.88 390.72 500.8z"  horiz-adv-x="1024" />

    
    <glyph glyph-name="dakailianjie" unicode="&#58985;" d="M768 270.93333299999995c-8.533333 0-19.2 4.266667-25.6 10.666667-14.933333 14.933333-14.933333 38.4 0 51.2l151.466667 151.466667c36.266667 36.266667 57.6 87.466667 57.6 138.666666s-21.333333 102.4-57.6 138.666667c-36.266667 36.266667-87.466667 57.6-138.666667 57.6-53.333333 0-102.4-21.333333-138.666667-57.6l-151.466666-151.466667c-14.933333-14.933333-38.4-14.933333-51.2 0-14.933333 14.933333-14.933333 38.4 0 51.2l151.466666 151.466667c51.2 51.2 119.466667 78.933333 192 78.933333 72.533333 0 140.8-27.733333 192-78.933333 51.2-51.2 78.933333-119.466667 78.933334-192 0-72.533333-27.733333-140.8-78.933334-192L797.866667 277.33333300000004c-12.8-2.133333-21.333333-6.4-29.866667-6.4zM270.933333-128c-72.533333 0-140.8 27.733333-192 78.933333-104.533333 104.533333-104.533333 277.333333 0 381.866667l151.466667 151.466667c14.933333 14.933333 38.4 14.933333 51.2 0 14.933333-14.933333 14.933333-38.4 0-51.2l-151.466667-151.466667c-76.8-76.8-76.8-202.666667 0-277.333333 36.266667-36.266667 87.466667-57.6 138.666667-57.6 53.333333 0 102.4 21.333333 138.666667 57.6l151.466666 151.466666c14.933333 14.933333 38.4 14.933333 51.2 0 14.933333-14.933333 14.933333-38.4 0-51.2l-151.466666-151.466666c-46.933333-53.333333-115.2-81.066667-187.733334-81.066667zM290.133333 125.866667c-8.533333 0-19.2 4.266667-25.6 10.666666-14.933333 14.933333-14.933333 38.4 0 51.2L661.333333 584.5333330000001c14.933333 14.933333 38.4 14.933333 51.2 0 14.933333-14.933333 14.933333-38.4 0-51.2L315.733333 136.53333299999997c-6.4-8.533333-17.066667-10.666667-25.6-10.666666z"  horiz-adv-x="1024" />

    
    <glyph glyph-name="zhuanjie1" unicode="&#58986;" d="M91.2-121.60000000000002l-35.2 75.2C25.6 17.600000000000023 9.6 86.39999999999998 9.6 156.79999999999995c0 68.8 14.4 136 44.8 198.4 28.8 60.8 68.8 115.2 120 163.2 51.2 46.4 112 83.2 179.2 108.8 60.8 24 124.8 36.8 190.4 40V833.6c-1.6 17.6 4.8 33.6 17.6 46.4 25.6 22.4 65.6 22.4 89.6 0l1.6-1.6L1008 524.8c11.2-11.2 19.2-25.6 17.6-41.6 0-16-6.4-30.4-17.6-41.6l-352-352c-12.8-12.8-30.4-20.8-48-20.8-16 0-32 6.4-44.8 16l-1.6 1.6c-12.8 11.2-19.2 28.8-17.6 46.4V296c-97.6-4.8-193.6-38.4-272-96-86.4-62.4-144-147.2-161.6-238.4l-19.2-83.2z m478.4 739.2c-136 0-262.4-48-358.4-134.4C116.8 396.8 64 280 64 158.39999999999998c0-36.8 4.8-73.6 14.4-110.4 32 73.6 86.4 139.2 156.8 190.4 96 68.8 214.4 107.2 334.4 107.2h27.2v-219.2c0-1.6 0-4.8 1.6-4.8 0 0 1.6 0 1.6-1.6 1.6-1.6 3.2-1.6 4.8-1.6 3.2 0 4.8 1.6 6.4 3.2l1.6 1.6 353.6 353.6c1.6 1.6 1.6 3.2 1.6 4.8v3.2c0 1.6 0 4.8-1.6 4.8l-1.6 1.6-353.6 352c-3.2 3.2-8 3.2-11.2 0-1.6-1.6-1.6-3.2-1.6-6.4v-219.2h-28.8z"  horiz-adv-x="1025" />

    
    <glyph glyph-name="xiazai" unicode="&#58991;" d="M983.81631-127.919846H45.329776a42.716656 42.716656 0 1 0 0 85.273324h938.486534a42.716656 42.716656 0 1 0 0-85.273324zM548.330401 55.90576399999998a47.996243 47.996243 0 0 0-67.354728 0L144.202036 388.839701a46.716343 46.716343 0 0 0 0 66.55479 47.996243 47.996243 0 0 0 67.354728 0l260.299623-257.259861v655.948651a42.716656 42.716656 0 0 0 85.273325 0v-655.948651L818.549248 455.394491a47.996243 47.996243 0 0 0 67.354727 0 46.716343 46.716343 0 0 0 0-66.55479z"  horiz-adv-x="1024" />

    
    <glyph glyph-name="zidingyikuaijiesousuo" unicode="&#58992;" d="M809.711267 545.59979l46.879985 55.999982a132.159959 132.159959 0 0 1-14.239995 185.599942l-93.119971 78.719975A127.99996 127.99996 0 0 1 666.511312 895.99968a133.279958 133.279958 0 0 1-102.239968-47.999985l-47.039986-55.839983L809.551267 545.59979z m-7.999997 92.159971L609.23133 799.99971l4.959998 5.759998A67.679979 67.679979 0 0 0 707.151299 815.999705L800.27127 737.27973a66.559979 66.559979 0 0 0 6.239998-93.599971zM992.27121-64.00001999999995H234.191447l79.039975 22.399993a31.99999 31.99999 0 0 1 15.999995 10.399997L739.471289 462.559815a31.99999 31.99999 0 0 1-3.199999 45.919986L494.191366 713.9197369999999a31.99999 31.99999 0 0 1-23.839993 7.679998 31.99999 31.99999 0 0 1-22.239993-11.519997L37.071509 215.35989300000006a31.99999 31.99999 0 0 1-7.519998-17.599995L0.27152-83.68001400000003a31.99999 31.99999 0 0 1 0-8.319997A31.99999 31.99999 0 0 1 0.27152-96.00000999999997a31.99999 31.99999 0 0 1 31.99999-31.99999h959.9997a31.99999 31.99999 0 0 1 0 63.99998zM107.951486 179.83990400000005L480.27137 627.039764l180.479944-154.559952-379.199882-439.199862-194.559939-59.999982z"  horiz-adv-x="1024" />

    
    <glyph glyph-name="gongzuotaiwangguan" unicode="&#58994;" d="M728 505.6c48 46.4 54.4 126.4 14.4 180.8-19.2 25.6-48 44.8-78.4 52.8-16 3.2-32 4.8-48 3.2-8 0-14.4-1.6-22.4-4.8-6.4-1.6-17.6-8-24-8-4.8 0-11.2 4.8-16 6.4-4.8 1.6-11.2 3.2-16 4.8-1.6 0-16 0-17.6 1.6v3.2c-1.6 8 0 20.8 0 28.8 28.8 3.2 51.2 28.8 52.8 57.6C576 860.8 555.2 886.4 528 894.4c-28.8 6.4-57.6-8-70.4-33.6-12.8-27.2-3.2-59.2 20.8-75.2 6.4-4.8 14.4-8 20.8-9.6 6.4-1.6 6.4 0 6.4-6.4v-27.2c-8 0-16-1.6-24-3.2-4.8-1.6-8-1.6-12.8-3.2-3.2-1.6-9.6-6.4-14.4-6.4-4.8 0-12.8 6.4-19.2 8-6.4 1.6-14.4 3.2-20.8 4.8-27.2 3.2-56 0-81.6-12.8-51.2-25.6-81.6-80-76.8-137.6 3.2-32 17.6-62.4 40-84.8-22.4-11.2-28.8-36.8-19.2-59.2 8-16 22.4-24 40-24h392c44.8-1.6 59.2 62.4 19.2 81.6zM513.6 880c22.4 0 40-16 44.8-36.8h-88C473.6 864 491.2 880 513.6 880z m-44.8-52.8h88c-8-48-78.4-48-88 0zM272 604.8c0 81.6 86.4 142.4 163.2 113.6-49.6-33.6-72-97.6-54.4-155.2 1.6-4.8 3.2-11.2 6.4-14.4 4.8-3.2 11.2 0 12.8 4.8 0 6.4-3.2 12.8-4.8 19.2-3.2 9.6-3.2 19.2-4.8 28.8 0 33.6 12.8 67.2 38.4 89.6 44.8 41.6 116.8 44.8 163.2 4.8 25.6-20.8 40-52.8 43.2-84.8 1.6-17.6-3.2-33.6-8-49.6-1.6-4.8-3.2-11.2 3.2-14.4 3.2-1.6 6.4 0 9.6 3.2 6.4 8 8 20.8 9.6 30.4 1.6 16 3.2 33.6 0 49.6-6.4 35.2-28.8 67.2-57.6 88 56 20.8 120-4.8 148.8-56 14.4-24 17.6-54.4 12.8-81.6-3.2-14.4-8-27.2-14.4-38.4-3.2-6.4-8-11.2-12.8-17.6-3.2-3.2-11.2-14.4-16-14.4H316.8C288 534.4 272 568 272 604.8z m436.8-166.4H316.8c-20.8 0-33.6 24-24 41.6 6.4 11.2 16 14.4 27.2 14.4h387.2c38.4 0 38.4-56 1.6-56zM312 388.8h395.2c60.8-54.4 97.6-132.8 97.6-219.2 0-163.2-132.8-296-296-296s-296 132.8-296 296c1.6 88 40 164.8 99.2 219.2z"  horiz-adv-x="1024" />

    
    <glyph glyph-name="zhuanhuan" unicode="&#58998;" d="M744.54704 38.879999999999995a38.24 38.24 0 0 1-49.76 12.16 379.2 379.2 0 0 0-512 517.28 37.44 37.44 0 0 1-11.52 49.76 37.28 37.28 0 0 1-44.32-1.28l-105.6-58.08a37.92 37.92 0 1 1 36.96-66.08l16 9.12a448 448 0 0 1-15.2-121.92 456.16 456.16 0 0 1 448-450.08 451.04 451.04 0 0 1 224 55.2 37.28 37.28 0 0 1 13.28 53.92z m276.64 222.08a37.92 37.92 0 0 1-51.52 14.56l-16-9.12a465.44 465.44 0 0 1 15.2 124.32A454.88 454.88 0 0 1 292.54704 780.64a37.12 37.12 0 0 1-12.16-53.92 37.44 37.44 0 0 1 49.76-11.52 379.36 379.36 0 0 0 563.04-316 374.88 374.88 0 0 0-45.44-196.48 37.44 37.44 0 0 1 12.16-49.76 46.88 46.88 0 0 1 15.2-6.08 36 36 0 0 1 27.36 3.68L1007.26704 208a39.04 39.04 0 0 1 13.92 52.16z m0 0"  horiz-adv-x="1024" />

    
    <glyph glyph-name="daochu1" unicode="&#59000;" d="M992 512a32 32 0 0 1 32 32V864a32 32 0 0 1-32 32H672a32 32 0 0 1 0-64h240L444.8 356.79999999999995a36.8 36.8 0 0 1 0-49.6 34.72 34.72 0 0 1 48 0L960 784v-240a32 32 0 0 1 32-32z m-64-192a32 32 0 0 1-32-32v-320a32 32 0 0 0-32-32H96a32 32 0 0 0-32 32V736a32 32 0 0 0 32 32h320a32 32 0 0 1 0 64H64a64 64 0 0 1-64-64v-832a64 64 0 0 1 64-64h832a64 64 0 0 1 64 64V288a32 32 0 0 1-32 32z"  horiz-adv-x="1024" />

    
    <glyph glyph-name="liuzhuan1" unicode="&#59001;" d="M0 361.6h739.2V588.8L1024 304H0v57.6z"  horiz-adv-x="1024" />

    
    <glyph glyph-name="dabiaoqian" unicode="&#59004;" d="M927.990575 632.94276a36.63917 36.63917 0 0 1-31.999275-41.91905l12.319721-149.756607-481.589089-481.589089L87.689613 297.91035l479.989126 479.989126 159.196393-21.759507a36.799166 36.799166 0 0 1 43.839007 30.079318 35.999184 35.999184 0 0 1-33.279247 40.639079L559.998913 852.137794a39.039116 39.039116 0 0 1-31.999275-11.03975L11.371342 325.42972699999996a38.879119 38.879119 0 0 1 0-54.878757l387.191228-387.191227a38.879119 38.879119 0 0 1 54.878757 0l515.668317 515.668317a38.879119 38.879119 0 0 1 11.199746 30.719304l-13.759688 167.676201A36.159181 36.159181 0 0 1 927.990575 632.94276zM1013.268643 885.257043a36.63917 36.63917 0 0 1-51.838825 0l-249.594346-249.594345a115.517383 115.517383 0 0 1-51.838825 12.79971 116.477361 116.477361 0 0 1 0-232.954722 115.517383 115.517383 0 0 1 103.517655 168.316187l249.594345 249.594345a36.63917 36.63917 0 0 1 0.159996 51.838825zM687.996013 504.465671a38.239134 38.239134 0 0 0-27.199384-11.199747 38.719123 38.719123 0 1 0 0 77.438246 38.879119 38.879119 0 0 0 27.199384-66.238499z"  horiz-adv-x="1024" />

    
    <glyph glyph-name="zongshichang" unicode="&#59005;" d="M512-128c-136 0-265.6 52.8-361.6 150.4C52.8 118.39999999999998 0 246.39999999999998 0 384c0 136 52.8 265.6 150.4 361.6C246.4 843.2 376 896 512 896c136 0 265.6-52.8 361.6-150.4 200-200 200-524.8 0-723.2-96-97.6-224-150.4-361.6-150.4z m0 963.2c-120 0-233.6-46.4-320-132.8-84.8-84.8-132.8-198.4-132.8-320 0-120 46.4-233.6 132.8-320 84.8-84.8 198.4-132.8 320-132.8s235.2 46.4 320 132.8C1008 240 1008 528 832 704c-84.8 84.8-198.4 131.2-320 131.2z m208-654.4c-6.4 0-12.8 1.6-19.2 4.8l-177.6 107.2c-1.6 0-1.6 1.6-3.2 1.6-4.8 3.2-12.8 6.4-14.4 11.2-25.6 14.4-30.4 25.6-30.4 33.6V641.6c0 22.4 17.6 40 40 40s40-17.6 40-40v-283.2l176-102.4 1.6-1.6c9.6-4.8 17.6-14.4 20.8-24 3.2-9.6 3.2-20.8-1.6-28.8-8-12.8-19.2-20.8-32-20.8z"  horiz-adv-x="1024" />

    
    <glyph glyph-name="peizhi" unicode="&#59007;" d="M576-128h-128c-52.8 0-94.4 43.2-94.4 96v32c-32 12.8-62.4 32-91.2 54.4l-56-33.6c-22.4-12.8-48-16-72-9.6s-44.8 22.4-57.6 44.8l-64 110.4C-12.8 212.79999999999995 1.6 272 48 297.6l56 32c-3.2 19.2-3.2 36.8-3.2 54.4s1.6 35.2 3.2 54.4l-56 32C3.2 496-12.8 555.2 12.8 600l64 110.4c12.8 22.4 33.6 38.4 57.6 44.8 24 6.4 49.6 3.2 72-9.6l56-33.6c28.8 22.4 59.2 40 91.2 54.4V800c0 52.8 43.2 96 94.4 96h128c52.8 0 94.4-43.2 94.4-96v-32c32-12.8 62.4-32 91.2-54.4l56 33.6c22.4 12.8 48 16 72 9.6s44.8-22.4 57.6-44.8l64-110.4c25.6-44.8 11.2-104-35.2-129.6l-56-32c3.2-19.2 3.2-36.8 3.2-54.4s-1.6-35.2-3.2-54.4l56-32c44.8-25.6 60.8-84.8 35.2-129.6l-64-110.4c-12.8-22.4-33.6-38.4-57.6-44.8-24-6.4-49.6-3.2-72 9.6l-56 33.6c-28.8-22.4-59.2-40-91.2-54.4v-33.6c0-54.4-43.2-97.6-94.4-97.6zM265.6 123.20000000000005c8 0 14.4-3.2 20.8-8 33.6-28.8 70.4-51.2 110.4-65.6 12.8-4.8 20.8-16 20.8-28.8v-54.4c0-17.6 14.4-33.6 32-33.6H576c17.6 0 32 14.4 32 33.6v54.4c0 12.8 8 25.6 20.8 28.8 38.4 14.4 75.2 35.2 110.4 65.6 9.6 8 24 9.6 36.8 3.2l75.2-43.2c8-4.8 16-4.8 24-3.2 8 1.6 16 8 19.2 16l64 110.4c9.6 16 3.2 35.2-11.2 44.8l-75.2 43.2c-11.2 6.4-17.6 19.2-14.4 32 4.8 24 6.4 44.8 6.4 64 0 19.2-1.6 40-6.4 64-1.6 12.8 3.2 25.6 14.4 32l75.2 43.2c16 9.6 20.8 28.8 11.2 44.8l-64 110.4c-4.8 8-11.2 12.8-19.2 16-8 1.6-17.6 1.6-24-3.2l-75.2-43.2c-11.2-6.4-25.6-4.8-36.8 3.2-33.6 28.8-70.4 51.2-110.4 65.6-12.8 4.8-20.8 16-20.8 28.8V800c0 17.6-14.4 33.6-32 33.6h-128c-17.6 0-32-14.4-32-33.6v-54.4c0-12.8-8-25.6-20.8-28.8-38.4-14.4-75.2-35.2-110.4-65.6-9.6-8-24-9.6-36.8-3.2l-75.2 43.2c-8 4.8-16 4.8-24 3.2-8-1.6-16-8-19.2-16l-64-110.4c-9.6-16-3.2-36.8 11.2-44.8L152 480c11.2-6.4 17.6-19.2 14.4-32-4.8-24-6.4-44.8-6.4-64 0-19.2 1.6-40 6.4-64 1.6-12.8-3.2-25.6-14.4-32l-75.2-43.2c-16-9.6-20.8-28.8-11.2-44.8l64-110.4c4.8-8 11.2-12.8 19.2-16 8-1.6 17.6-1.6 24 3.2l75.2 43.2c6.4 1.6 11.2 3.2 17.6 3.2zM512 164.79999999999995c-120 0-219.2 97.6-219.2 219.2S392 603.2 512 603.2 731.2 504 731.2 384 632 164.79999999999995 512 164.79999999999995z m0 376c-86.4 0-156.8-70.4-156.8-156.8s70.4-156.8 156.8-156.8 156.8 70.4 156.8 156.8-70.4 156.8-156.8 156.8z"  horiz-adv-x="1024" />

    
    <glyph glyph-name="duijie" unicode="&#59008;" d="M585.12 489.12V864a32 32 0 0 0 32 32H992a32 32 0 0 0 32-32v-374.88a32 32 0 0 0-32-32H617.12a32 32 0 0 0-32 32zM950.88 822.88H658.24v-292.64h292.64zM73.12 4.32000000000005l281.12 281.44L320 320a16 16 0 0 0 11.36 27.36h128a16 16 0 0 0 16-16v-128A16 16 0 0 0 448 192l-33.28 33.28L135.2-54.879999999999995h669.44V331.36a16 16 0 0 0 16 16h41.12a16 16 0 0 0 16-16V-96a32 32 0 0 0-32-32H32a32 32 0 0 0-32 32V716.8a32 32 0 0 0 32 32l427.52 0.96a16 16 0 0 0 16-16v-41.12a16 16 0 0 0-16-16H73.12z"  horiz-adv-x="1024" />

    
    <glyph glyph-name="kaiguan" unicode="&#59009;" d="M96-6.720000000000027a48 48 0 0 0-48 48V724.64a46.88 46.88 0 0 0 48 48h828.8s48-1.76 48-48v-170.72S582.88 312 524.96 280.32000000000005a28.16 28.16 0 0 0-28.48 0l-308.8 197.28a23.52 23.52 0 0 0-2.88 33.28c15.2 21.92 40.64 5.6 40.64 5.6l285.76-177.44 414.4 246.08v139.52H96v-682.56h828.8V384a24.32 24.32 0 0 0 24.32 24.32A24.32 24.32 0 0 0 974.4 384v-341.92a48 48 0 0 0-48-48z"  horiz-adv-x="1024" />

    
    <glyph glyph-name="kaiguan1" unicode="&#59010;" d="M804.64 120.96000000000004a434.4 434.4 0 0 1 48.96-176S713.6-32 606.08 49.75999999999999a608 608 0 0 0-94.08-7.36C242.56 42.39999999999998 24 217.12 24 432S242.56 823.2 512 823.2 1000 648.48 1000 432c0-126.88-76.96-240-195.36-311.04zM512 774.4C269.44 774.4 72.8 621.44 72.8 432S269.44 91.20000000000005 512 91.20000000000005a672.96 672.96 0 0 1 106.08 10.72c112-82.08 165.28-96 165.28-96a370.72 370.72 0 0 0-21.92 139.52C877.44 204.32000000000005 951.2 312 951.2 432 951.2 621.44 754.56 774.4 512 774.4zM548.64 336c-33.76 0-60.96 43.68-60.96 97.6s27.36 97.6 60.96 97.6 60.96-44.48 60.96-99.2-27.36-96-60.96-96zM304 336c-33.76 0-60.96 43.68-60.96 97.6s27.36 97.6 60.96 97.6 60.96-43.68 60.96-97.6S338.24 336 304 336z"  horiz-adv-x="1024" />

    
    <glyph glyph-name="kaiguan2" unicode="&#59011;" d="M775.2 859.68c36.8 26.72 78.4 6.88 78.4-32V-60.799999999999955a43.52 43.52 0 0 0-40.32-43.04c-29.44-3.2-53.92 19.2-74.4 33.92-126.88 91.68-321.44 240-321.44 240a28.96 28.96 0 0 0-6.08 40 27.84 27.84 0 0 0 39.84 3.84l350.24-266.88V807.52l-332.8-248.48a145.92 145.92 0 0 0-75.36-21.28H226.4v-308.64h104.48a24 24 0 0 0 26.08-25.76c0-22.08-26.08-25.76-26.08-25.76h-104.48s-52.32 10.08-52.32 55.84V546.72s0 42.4 52.32 42.4h156.8a103.04 103.04 0 0 1 61.44 22.88z"  horiz-adv-x="1024" />

    
    <glyph glyph-name="guan" unicode="&#59012;" d="M512 510.88l96-96a155.2 155.2 0 0 1 1.6 17.12c0 53.92-27.36 97.6-60.96 97.6A48 48 0 0 1 512 510.88zM512 774.4c242.56 0 439.2-152.96 439.2-342.4A311.2 311.2 0 0 0 832 192l30.24-30.24c85.44 70.24 138.4 165.76 138.4 272 0 215.52-218.4 390.4-488 390.4a579.2 579.2 0 0 1-255.52-58.4l36.64-36.64A536.32 536.32 0 0 0 512 774.4zM364.64 416l-96 96a122.56 122.56 0 0 1-25.6-80c0-53.92 27.36-97.6 60.96-97.6 30.88 0.8 55.84 36 60.64 81.6z m253.28-313.92a672.96 672.96 0 0 0-105.92-10.88C269.44 91.20000000000005 72.8 244.15999999999997 72.8 432a291.52 291.52 0 0 0 80 196l-34.72 35.2A340 340 0 0 1 24 432c0-215.52 218.4-390.4 488-390.4a608.8 608.8 0 0 1 94.08 7.36A625.28 625.28 0 0 1 832-50.72000000000003l-61.92 61.92a714.72 714.72 0 0 0-152.16 90.88zM52 896L0 844 972-128 1024-76z"  horiz-adv-x="1024" />

    
    <glyph glyph-name="guan2" unicode="&#59014;" d="M926.4 724.64v-139.52L611.52 398.4l41.76-41.76c134.72 81.76 322.08 197.44 322.08 197.44V724.64c0 47.04-48 48-48 48H236.48l48-48z m24.48-316.8A24.32 24.32 0 0 1 926.4 384v-300.64l48-48a53.28 53.28 0 0 1 0 7.04V384a24.32 24.32 0 0 1-23.68 23.84zM96.8 42.39999999999998V672L48 720v-677.6a48 48 0 0 1 48-48h678.72l-48 48z m373.44 256l-176 176-68.8 42.72s-25.44 16-40.64-5.6a23.52 23.52 0 0 1 2.88-33.28z m480-299.36A48 48 0 0 1 973.92 32L944 3.3600000000000136 52 896 0 844 972-128 1024-76z"  horiz-adv-x="1024" />

    
    <glyph glyph-name="guan3" unicode="&#59015;" d="M800.8 807.52L466.88 560l-41.6 41.6a99.52 99.52 0 0 1 17.12 11.2L774.56 859.68c36.96 26.72 78.72 6.88 78.72-32v-654.72l-52.48 52.64zM972-128L0 843.52 52 896 1024-75.51999999999998zM199.84 585.28l48-48h-24v-307.52h104.96a24 24 0 0 0 26.24-25.76c0-22.08-26.24-25.76-26.24-25.76h-105.76s-52.48 10.08-52.48 55.84V546.88a44 44 0 0 0 29.28 38.4z m249.44-371.2l352-266.24V-16l51.52-51.52a42.08 42.08 0 0 0-39.52-35.68c-29.6-3.2-54.24 19.2-74.88 33.92-128 91.68-322.88 240-322.88 240a28.96 28.96 0 0 0-6.08 40 28.16 28.16 0 0 0 39.68 3.36z"  horiz-adv-x="1024" />

    
    <glyph glyph-name="yaoqing" unicode="&#59026;" d="M980.8 81.60000000000002h-121.6v120c0 12.8-11.2 24-24 24s-24-9.6-24-24v-120h-121.6c-12.8 0-24-9.6-24-24 0-12.8 11.2-24 24-24h121.6v-120c0-12.8 11.2-24 24-24s24 11.2 24 24v120h121.6c12.8 0 24 9.6 24 24-1.6 12.8-11.2 24-24 24zM678.4 313.6c32-12.8 60.8-30.4 88-51.2 4.8-3.2 9.6-4.8 14.4-4.8 6.4 0 14.4 3.2 19.2 9.6 8 9.6 6.4 25.6-4.8 32-24 17.6-48 32-73.6 46.4 4.8 4.8 9.6 8 14.4 12.8 57.6 57.6 89.6 132.8 89.6 214.4s-32 156.8-89.6 214.4c-57.6 57.6-134.4 88-216 88s-158.4-32-216-88c-57.6-57.6-89.6-132.8-89.6-214.4s32-156.8 89.6-214.4l3.2-3.2c-33.6-14.4-64-32-92.8-54.4-40-28.8-73.6-64-102.4-104-59.2-81.6-91.2-179.2-91.2-281.6 0-12.8 11.2-24 24-24s24 11.2 24 24c0 180.8 113.6 342.4 281.6 406.4 49.6-33.6 108.8-52.8 171.2-52.8 56 0 110.4 16 156.8 44.8z m-416 259.2c0 140.8 115.2 256 257.6 256 142.4 0 257.6-115.2 257.6-256s-115.2-256-257.6-256c-142.4 0-257.6 113.6-257.6 256z"  horiz-adv-x="1024" />

    
    <glyph glyph-name="fuzhi" unicode="&#59029;" d="M796.48 526.24h-142.24v142.24a28.48 28.48 0 0 1-56.96 0v-142.24h-142.24a28.48 28.48 0 0 1 0-56.96h142.24v-142.24a28.48 28.48 0 0 1 56.96 0v142.24h142.24a28.48 28.48 0 0 1 0 56.96zM910.24 896H341.28c-62.88 0-113.76-28-113.76-113.76v-568.96c0-62.88 21.76-113.76 113.76-113.76h568.96c77.12 0 113.76 50.88 113.76 113.76V782.24C1024 868 973.12 896 910.24 896z m56.96-682.72a56.96 56.96 0 0 0-56.96-56.96H341.28a56.96 56.96 0 0 0-56.96 56.96V782.24a56.96 56.96 0 0 0 56.96 56.96h568.96a56.96 56.96 0 0 0 56.96-56.96zM739.52-14.240000000000009a56.96 56.96 0 0 0-56.96-56.96H113.76a56.96 56.96 0 0 0-56.96 56.96V554.72a61.28 61.28 0 0 0 56.96 56.96h44.48v56.8H113.76c-62.88 0-113.76-32-113.76-113.76v-568.96C0-77.12 25.28-128 113.76-128h568.96c88.64 0 113.76 50.88 113.76 113.76v44.48h-56.96z"  horiz-adv-x="1024" />

    
    <glyph glyph-name="zhankai" unicode="&#59030;" d="M974.781523 432.099875H560.259675V847.580524A47.940075 47.940075 0 0 1 463.420724 847.580524v-415.480649H47.940075a47.940075 47.940075 0 0 1 0-95.88015h415.480649v-415.480649a47.940075 47.940075 0 0 1 97.478152 0V336.21972500000004H974.781523a47.940075 47.940075 0 0 1 0 95.88015z"  horiz-adv-x="1024" />

    
    <glyph glyph-name="weijielaidian" unicode="&#59032;" d="M844.353907 273.276969a101.756757 101.756757 0 0 1-73.437659 31.99898 109.116522 109.116522 0 0 1-79.99745-31.99898l-60.638067-60.798062a874.692119 874.692119 0 0 0-164.314763 123.516063 899.011344 899.011344 0 0 0-123.196073 167.034676l60.318078 60.478072a108.796532 108.796532 0 0 1 1.599949 153.275115l-147.515298 147.195308a101.916751 101.916751 0 0 1-73.597655 31.99898 110.396481 110.396481 0 0 1-79.99745-31.99898 429.266317 429.266317 0 0 1-82.237378-114.716344 221.752932 221.752932 0 0 1-18.239419-70.397756c-20.159357-175.194416 56.79819-331.349438 265.591534-539.182813C513.324459-105.91094399999997 720.03787-127.99023999999997 787.075733-127.99023999999997a181.274222 181.274222 0 0 1 22.079296 1.119964 283.510963 283.510963 0 0 1 68.797807 17.919429A440.945945 440.945945 0 0 1 992.0292-27.833433000000014a110.396481 110.396481 0 0 1 31.99898 78.877486 104.79666 104.79666 0 0 1-31.99898 74.717618z m103.196711-255.99184a382.067822 382.067822 0 0 0-94.077002-67.677843 226.552779 226.552779 0 0 0-53.438296-13.599566c-2.079934 0-214.873151-23.83924-486.544492 248.79207C119.577009 376.63367500000004 48.059289 517.909172 65.658728 672.784235a161.114864 161.114864 0 0 0 13.279577 51.518358A370.868179 370.868179 0 0 0 147.896107 819.019574a47.99847 47.99847 0 0 0 34.238908 14.079551 40.15872 40.15872 0 0 0 29.279067-12.479602l148.635262-148.635262a45.918536 45.918536 0 0 0-1.599949-63.997961l-75.517593-75.837582a31.99898 31.99898 0 0 1-9.119709-22.079296c0-28.639087 87.037226-157.114992 147.675293-218.073049C479.245545 234.078219 601.641644 146.08102399999996 635.240573 143.841095a31.99898 31.99898 0 0 1 24.319224 9.119709l75.517593 75.837583a47.99847 47.99847 0 0 0 34.238909 14.079551 39.998725 39.998725 0 0 0 29.279067-12.479602l147.995282-148.475267a42.558643 42.558643 0 0 0 13.279577-30.399031 47.99847 47.99847 0 0 0-12.319607-35.518868zM546.763393 406.712716l191.99388 191.99388 183.994135-184.954104h-101.116777a28.479092 28.479092 0 0 1-28.799082-28.799082 29.279067 29.279067 0 0 1 28.959077-28.959077l168.47463-0.799975a30.079041 30.079041 0 0 1 9.439699 0 28.479092 28.479092 0 0 1 24.319225 28.799082l-0.799974 173.274477a29.279067 29.279067 0 0 1-28.959077 28.959077 28.479092 28.479092 0 0 1-28.799082-28.799082v-102.396736l-206.393422 206.393421a30.079041 30.079041 0 0 1-42.558643 0l-212.793217-212.793217a30.079041 30.079041 0 0 1 42.558643-42.558644z"  horiz-adv-x="1024" />

    
    <glyph glyph-name="duanxin" unicode="&#59033;" d="M512 67.20000000000005a498.4 498.4 0 0 0-87.2 7.68L252.8-48V142.55999999999995C148 210.88 80 320 80 441.6 80 648.3199999999999 273.44 816 512 816s432-167.68 432-374.4-193.44-374.4-432-374.4z m0 691.2c-206.72 0-374.4-141.76-374.4-316.8 0-112 68.96-210.4 172.8-266.72v-107.68l94.56 70.88a437.44 437.44 0 0 1 107.04-13.28c206.72 0 374.4 141.76 374.4 316.8S718.72 758.4 512 758.4z m172.8-259.2H339.2a28.8 28.8 0 1 0 0 57.6h345.6a28.8 28.8 0 1 0 0-57.6z m-288-115.2h230.4a28.8 28.8 0 0 0 0-57.6H396.8a28.8 28.8 0 1 0 0 57.6z"  horiz-adv-x="1024" />

    
    <glyph glyph-name="sanfanghuihua" unicode="&#59038;" d="M512 565.9200000000001a112 112 0 1 1-112 112 112 112 0 0 1 112-112z m0 168a56 56 0 1 0-56-56 56 56 0 0 0 56 56z m-326.4-337.6a27.84 27.84 0 0 1 27.68 20.96 308.16 308.16 0 0 0 126.56 180.16 28.64 28.64 0 0 1 11.36 32 27.04 27.04 0 0 1-41.12 14.72 364.32 364.32 0 0 1-151.36-214.4 27.68 27.68 0 0 1 26.88-33.44z m497.76 201.28a308.16 308.16 0 0 0 126.72-180 27.68 27.68 0 0 1 28.32-20.8 27.68 27.68 0 0 1 25.76 34.08 364.32 364.32 0 0 1-150.72 213.92 27.36 27.36 0 0 1-41.12-16 28.32 28.32 0 0 1 11.04-31.2z m56.16-495.04a26.72 26.72 0 0 1-33.92 0 306.72 306.72 0 0 0-387.36 0 26.72 26.72 0 0 1-33.92 0 28.48 28.48 0 0 1 0-43.68 363.68 363.68 0 0 1 456.16 0 28.48 28.48 0 0 1 0 43.68zM176 341.91999999999996a112 112 0 1 1 112-112 112 112 0 0 1-112 112z m0-168a56 56 0 1 0 56 56 56 56 0 0 0-56-56z m672 168a112 112 0 1 1 112-112 112 112 0 0 1-112 112z m0-168a56 56 0 1 0 56 56 56 56 0 0 0-56-56z"  horiz-adv-x="1024" />

    
    <glyph glyph-name="ivr" unicode="&#59040;" d="M71.68 632v-496H16v496zM190.56 632l153.44-434.24h2.08l153.28 434.24h61.92l-181.44-496h-69.6L128 632zM825.76 632a177.76 177.76 0 0 0 115.52-34.08 128 128 0 0 0 44-104.16 124.32 124.32 0 0 0-22.72-73.6A113.12 113.12 0 0 0 896 377.12v-1.44c46.72-10.4 72.96-40.32 78.4-90.24l7.52-76.48A133.6 133.6 0 0 1 1008 136h-61.12a135.84 135.84 0 0 0-20 65.92l-6.24 65.92a82.24 82.24 0 0 1-30.88 64 115.2 115.2 0 0 1-70.88 18.08H670.4V136h-56.32v496zM670.4 398.56h148.48a124.48 124.48 0 0 1 83.2 25.76A87.36 87.36 0 0 1 928 491.68 86.88 86.88 0 0 1 902.88 560c-17.92 16-46.08 22.88-83.84 22.88H670.4z"  horiz-adv-x="1024" />

    
    <glyph glyph-name="huifu" unicode="&#59041;" d="M832 416.96L348 746.24A27.68 27.68 0 0 1 304 724.3199999999999v-680.64a27.68 27.68 0 0 1 44.48-21.92L832 351.03999999999996a41.44 41.44 0 0 1 0 65.92z"  horiz-adv-x="1024" />

    
    <glyph glyph-name="zhuanjie3" unicode="&#59042;" d="M350.08 142.55999999999995a242.88 242.88 0 0 0 27.04 484.48H512a26.88 26.88 0 0 1 26.72 24.32v2.24a30.56 30.56 0 0 1-13.28 27.52L363.04 785.76a25.44 25.44 0 0 1-36.64-10.88 32 32 0 0 1 9.6-40.64l83.2-53.28h-42.24a296.8 296.8 0 0 1-38.88-591.04s32-5.44 38.88 16c9.92 30.4-26.88 36.64-26.88 36.64zM944 384a296.64 296.64 0 0 1-258.24 294.08s-35.2 7.04-38.88-21.44c-3.2-25.76 27.04-31.04 27.04-31.04a242.88 242.88 0 0 0-27.04-484.48H512a26.88 26.88 0 0 1-20.32-9.28 26.72 26.72 0 0 1-6.4-14.88v-2.24a30.56 30.56 0 0 1 13.28-27.52l162.56-104a25.44 25.44 0 0 1 36.64 10.88 32 32 0 0 1-9.76 39.68l-83.84 53.28h43.2A296.96 296.96 0 0 1 944 384z"  horiz-adv-x="1024" />

    
    <glyph glyph-name="zixun" unicode="&#59043;" d="M341.44 464a54.08 54.08 0 1 1 61.92-61.92A54.24 54.24 0 0 1 341.44 464z m179.04-106.72a54.08 54.08 0 1 1-61.92 61.92 54.24 54.24 0 0 1 61.92-61.6z m144.96 0a54.08 54.08 0 1 1-44.8 44.8 54.08 54.08 0 0 1 44.8-44.48zM486.56 816A406.88 406.88 0 0 1 107.52 430.4 402.24 402.24 0 0 1 176 185.91999999999996a27.04 27.04 0 1 1 44.8 30.24A350.56 350.56 0 0 0 534.72 761.28 350.24 350.24 0 0 0 688 108.96000000000004a107.84 107.84 0 1 1 11.68-55.68A404.48 404.48 0 0 1 486.56 816z m97.92-808.64a54.08 54.08 0 1 0 61.92 61.92 54.24 54.24 0 0 0-61.92-62.56z"  horiz-adv-x="1024" />

    
    <glyph glyph-name="quxiaozixun" unicode="&#59044;" d="M804.32 217.27999999999997A343.52 343.52 0 0 1 864 411.04a353.28 353.28 0 0 1-548.8 292l-38.24 38.72a407.36 407.36 0 0 0 641.92-330.72 397.92 397.92 0 0 0-75.52-232.48z m-142.08 141.12l-40.64 40.48a53.44 53.44 0 0 0-1.44 12.16 54.72 54.72 0 1 0 42.08-52.48z m224-404L80 756.3199999999999l57.6 57.28L944 11.67999999999995zM192 559.04a347.04 347.04 0 0 1 26.4-342.72 27.04 27.04 0 0 0-5.76-36.64 27.2 27.2 0 0 0-39.04 6.08 401.44 401.44 0 0 0-22.4 413.6z m190.72-189.76a54.08 54.08 0 0 0-88.32 41.76 53.28 53.28 0 0 0 12.32 33.92z m203.04-202.08l115.04-114.4a108.32 108.32 0 1 0-115.04 114.4z m7.2-161.28a54.08 54.08 0 1 1-54.24 53.92 54.08 54.08 0 0 1 54.24-53.92z"  horiz-adv-x="1024" />

    
    <glyph glyph-name="guaduan1" unicode="&#59045;" d="M92.16 164.79999999999995A80 80 0 0 0 27.2 192c-31.2 35.2-54.56 204.64 41.92 301.12C120 544 267.04 603.2 514.56 603.2c261.92 0 401.76-73.12 441.12-109.92 92.32-86.4 75.52-268.16 40.64-303.2-22.24-22.24-56.8-24.32-85.12-24a1180.16 1180.16 0 0 0-171.36 30.24c-44.48 13.76-60.32 25.6-68.96 34.4a80 80 0 0 0-20 74.56 373.92 373.92 0 0 0 16 50.56 713.6 713.6 0 0 1-151.84 16 764.16 764.16 0 0 1-156-16 371.84 371.84 0 0 0 16-50.08 80 80 0 0 0-20-74.56c-8.8-8.8-24.64-20.64-69.12-34.4-27.36-8.48-140.8-27.36-169.12-30.08-8.64-1.28-16.64-1.92-24.64-1.92z m422.4 384c-246.88 0-372.96-57.92-406.72-94.08C29.92 371.36 57.6 240 68.32 227.20000000000005c5.76-6.72 13.92-9.6 42.08-6.72s137.92 21.6 158.4 28a122.88 122.88 0 0 1 46.56 20.8c2.24 2.24 8.32 8.32 4.96 26.24a534.88 534.88 0 0 1-17.28 53.44 43.36 43.36 0 0 0 28.48 55.84 768 768 0 0 0 182.88 21.92 713.92 713.92 0 0 0 179.2-21.76 43.2 43.2 0 0 0 28-55.68 539.52 539.52 0 0 1-17.6-53.76c-3.36-17.92 2.72-24 4.96-26.24a122.72 122.72 0 0 1 46.56-20.8A1198.4 1198.4 0 0 1 912 220.79999999999995c32 0 42.4 4.8 45.6 8 12.16 12.16 37.28 141.28-40.64 226.08-23.2 25.12-150.56 93.76-402.4 93.76z"  horiz-adv-x="1024" />

    
    <glyph glyph-name="quxiaolianxijihua" unicode="&#58882;" d="M921.28 478.4H551.04l-63.04 63.04h433.28v188.8h-125.92v-63.04h-63.04v63.04H299.2l-70.56 70.72V856.16h63.04v-62.88h440.64V856.16h63.04v-62.88h188.8v-748l-63.04 63.04z m-176-66.88l58.24-58.24-69.12-57.6-60 59.52zM979.52-128L0 851.52 44.48 896 1024-83.51999999999998zM337.44 353.28l116.32-174.56 72.16 57.76 62.08-62.08-134.24-112L272 320zM102.72 541.44h118.24l63.04-63.04H102.72v-503.68h684.96l63.04-63.04H39.84V722.72l58.88-58.88z"  horiz-adv-x="1024" />

    
    <glyph glyph-name="tishi" unicode="&#58883;" d="M980.656 580.884c-26.689 61.711-62.998 115.526-108.954 161.418-45.936 45.905-99.643 82.188-161.1 108.858-61.464 26.676-127.27 40.01-197.417 40.01-70.153 0-135.959-13.334-197.423-40.01-61.457-26.67-115.151-62.953-161.1-108.858-45.95-45.892-82.259-99.7-108.96-161.418C19.007 519.166 5.666 453.272 5.666 383.176c0-70.09 13.341-135.826 40.036-197.226 26.701-61.414 63.01-115.063 108.953-160.968 45.95-45.892 99.643-82.176 161.101-108.858 61.464-26.663 127.27-40.004 197.423-40.004 70.147 0 135.952 13.334 197.416 40.004 61.458 26.682 115.165 62.966 161.101 108.858 45.943 45.905 82.265 99.554 108.953 160.968 26.708 61.4 40.049 127.143 40.049 197.226 0.013 70.103-13.335 135.99-40.042 197.708z m-467.47-525.068c-31.734 0-57.453 25.693-57.453 57.401 0 31.695 25.725 57.402 57.452 57.402 31.74 0 57.446-25.707 57.446-57.402 0-31.714-25.712-57.401-57.446-57.401z m57.445 238.63c0-31.701-25.712-57.413-57.446-57.413-31.733 0-57.452 25.712-57.452 57.414V654.079c0 31.715 25.725 57.415 57.452 57.415 31.74 0 57.446-25.7 57.446-57.415v-359.632z m0 0"  horiz-adv-x="1024" />

    
    <glyph glyph-name="youjianxiangqingExcle" unicode="&#58887;" d="M806.4 665.6h-135.68L512 468.48 353.28 665.6H217.6l225.28-281.6-225.28-281.6h135.68l158.72 197.12 158.72-197.12h135.68l-225.28 281.6z"  horiz-adv-x="1024" />

    
    <glyph glyph-name="youjianxiangqingtupian" unicode="&#58888;" d="M744.96 478.72c0 64-66.56 64-66.56 64-66.56-5.12-64-64-64-64 0-64 64-64 64-64 71.68 2.56 66.56 64 66.56 64zM819.2 161.27999999999997V614.4c0 30.72-28.16 25.6-28.16 25.6H230.4s-25.6 7.68-25.6-25.6h586.24v-404.48H742.4l-133.12 143.36L512 256l-135.68 161.28-133.12-207.36H230.4V614.4H204.8v-453.12S202.24 128 230.4 128h563.2c28.16 0 25.6 33.28 25.6 33.28z"  horiz-adv-x="1024" />

    
    <glyph glyph-name="youjianxiangqingword" unicode="&#58889;" d="M409.6 133.12l104.96 389.12 104.96-389.12h110.08l125.44 501.76h-104.96l-79.36-363.52-89.6 363.52h-125.44l-99.84-358.4-79.36 358.4H166.4l125.44-501.76H409.6z"  horiz-adv-x="1024" />

    
    <glyph glyph-name="youjianxiangqingweizhi" unicode="&#58890;" d="M696.32 616.96H250.88c-10.24 0-20.48-10.24-20.48-23.04v-494.08c0-12.8 10.24-23.04 20.48-23.04H614.4l99.84 107.52v409.6c2.56 12.8-7.68 23.04-17.92 23.04zM486.4 230.39999999999998h-25.6v25.6h25.6v-25.6z m33.28 115.2l-5.12-2.56c-15.36-10.24-28.16-17.92-28.16-38.4v-23.04h-25.6v20.48c0 35.84 15.36 48.64 28.16 58.88 0 0 2.56 2.56 5.12 2.56 33.28 25.6 35.84 38.4 35.84 53.76 0 28.16-20.48 46.08-53.76 46.08-23.04 0-48.64-10.24-53.76-53.76v-10.24l-33.28 7.68v7.68c7.68 53.76 38.4 81.92 87.04 81.92 56.32 0 87.04-28.16 87.04-79.36 0-28.16-10.24-46.08-43.52-71.68zM793.6 668.16c0 12.8-10.24 23.04-20.48 23.04H307.2c-17.92 0-30.72-7.68-30.72-25.6h471.04c10.24 0 20.48-10.24 20.48-23.04v-422.4c17.92 0 25.6 15.36 25.6 33.28V668.16z"  horiz-adv-x="1024" />

    
    <glyph glyph-name="youjianxiangqingPPT" unicode="&#58891;" d="M230.4 665.6v-563.2h102.4v227.84h460.8V665.6H230.4z m458.24-230.4H335.36v128h353.28v-128z"  horiz-adv-x="1024" />

    
    <glyph glyph-name="youjianxiangqingpdf" unicode="&#58892;" d="M486.4 432.64c-10.24-33.28-25.6-69.12-46.08-110.08-10.24-17.92-17.92-33.28-23.04-46.08l5.12 2.56c58.88 23.04 112.64 35.84 151.04 43.52-7.68 5.12-12.8 10.24-17.92 15.36-28.16 20.48-51.2 53.76-69.12 94.72z m294.4-174.08c-7.68-7.68-20.48-12.8-40.96-12.8-33.28 0-89.6 10.24-135.68 33.28-79.36-7.68-135.68-17.92-181.76-33.28-2.56 0-5.12-2.56-7.68-2.56-56.32-97.28-97.28-138.24-135.68-138.24-7.68 0-15.36 2.56-20.48 5.12l-23.04 15.36-2.56 2.56c-2.56 2.56-2.56 12.8-2.56 20.48 5.12 23.04 30.72 61.44 84.48 97.28 7.68 5.12 23.04 12.8 40.96 23.04 12.8 23.04 28.16 51.2 43.52 81.92 23.04 46.08 38.4 92.16 48.64 133.12-17.92 53.76-25.6 87.04-10.24 148.48 5.12 15.36 20.48 33.28 38.4 33.28h10.24c10.24 0 20.48-2.56 28.16-10.24 30.72-30.72 15.36-102.4 0-163.84 0-2.56-2.56-5.12-2.56-5.12 17.92-51.2 43.52-92.16 71.68-115.2 12.8-10.24 25.6-17.92 38.4-25.6 20.48 2.56 40.96 2.56 58.88 2.56 56.32 0 89.6-10.24 102.4-30.72 5.12-7.68 7.68-15.36 5.12-25.6 5.12-15.36 0-25.6-7.68-33.28z m-17.92 33.28c-5.12 5.12-23.04 15.36-87.04 15.36-2.56 0-5.12 0-10.24-5.12 33.28-15.36 66.56-23.04 87.04-23.04h10.24c2.56 0 2.56 2.56 5.12 5.12-2.56 2.56-5.12 5.12-5.12 7.68z m-417.28-66.56c-10.24-5.12-17.92-10.24-23.04-15.36-33.28-30.72-53.76-58.88-53.76-76.8 20.48 7.68 46.08 38.4 76.8 92.16z m135.68 314.88c5.12 15.36 7.68 28.16 10.24 38.4l2.56 7.68c5.12 25.6 2.56 38.4-5.12 51.2l-7.68 2.56c0-2.56-2.56-2.56-2.56-5.12-7.68-23.04-7.68-56.32 2.56-94.72z"  horiz-adv-x="1024" />

    
    <glyph glyph-name="youjianxiangqingzip" unicode="&#58893;" d="M450.56 665.6v-61.44h76.8v-61.44h-76.8v-64h76.8v-61.44h-76.8v-53.76h76.8v-102.4c0-12.8-10.24-23.04-23.04-23.04h-110.08c-12.8 0-23.04 10.24-23.04 23.04v156.16h79.36v61.44h-79.36v64h79.36v61.44h-79.36V665.6H230.4v-563.2h563.2V665.6H450.56z m46.08-335.36h-94.72v-61.44h94.72v61.44z"  horiz-adv-x="1024" />

    
    <glyph glyph-name="tichuxiezuozuoxi" unicode="&#58895;" d="M974.848-29.696l-86.016 86.016 86.016 86.016c8.192 8.192 8.192 24.576 0 32.768-8.192 8.192-24.576 8.192-32.768 0l-86.016-86.016-86.016 86.016c-8.192 8.192-24.576 8.192-32.768 0-8.192-8.192-8.192-24.576 0-32.768l86.016-86.016-86.016-86.016c-8.192-8.192-8.192-24.576 0-32.768 8.192-8.192 24.576-8.192 32.768 0l86.016 86.016 86.016-86.016c8.192-8.192 24.576-8.192 32.768 0 8.192 12.288 8.192 24.576 0 32.768z m-274.432 344.064c32.768-12.288 61.44-32.768 90.112-53.248 4.096-4.096 8.192-4.096 12.288-4.096 8.192 0 12.288 4.096 20.48 8.192 8.192 12.288 4.096 24.576-4.096 32.768-24.576 16.384-49.152 32.768-73.728 45.056l12.288 12.288c57.344 57.344 90.112 135.168 90.112 212.992 0 81.92-32.768 155.648-90.112 212.992C700.416 838.656 622.592 871.424 540.672 871.424s-159.744-32.768-217.088-90.112C266.24 728.064 237.568 654.336 237.568 572.416c0-81.92 32.768-155.648 90.112-212.992l4.096-4.096c-32.768-16.384-65.536-32.768-94.208-53.248-40.96-28.672-73.728-65.536-102.4-102.4-61.44-81.92-90.112-180.224-90.112-282.624 0-12.288 12.288-24.576 24.576-24.576s24.576 12.288 24.576 24.576c0 180.224 114.688 344.064 282.624 405.504 49.152-32.768 110.592-53.248 172.032-53.248 49.152 0 102.4 16.384 151.552 45.056zM282.624 572.416c0 139.264 114.688 258.048 258.048 258.048s258.048-114.688 258.048-258.048c0-139.264-114.688-258.048-258.048-258.048s-258.048 118.784-258.048 258.048z"  horiz-adv-x="1024" />

    
    <glyph glyph-name="zhudongyaoqing" unicode="&#58897;" d="M319.488 490.496c-8.192 8.192-20.48 12.288-36.864 16.384-28.672-12.288-45.056-20.48-53.248-57.344-8.192-45.056 16.384-114.688 53.248-110.592 57.344 4.096 65.536 110.592 36.864 151.552zM958.464 588.8c-86.016 147.456-233.472 245.76-475.136 241.664-16.384 0-32.768-4.096-49.152-4.096-28.672-8.192-61.44-16.384-90.112-20.48-143.36-45.056-249.856-131.072-303.104-262.144-28.672-73.728-20.48-180.224 8.192-245.76 20.48-45.056 45.056-81.92 73.728-114.688 4.096 20.48 12.288 36.864 24.576 53.248-24.576 28.672-45.056 65.536-57.344 102.4-45.056 143.36 32.768 274.432 114.688 335.872 49.152 36.864 102.4 65.536 167.936 81.92l73.728 12.288c12.288 4.096 24.576 4.096 36.864 4.096 204.8 0 344.064-69.632 421.888-196.608 12.288-24.576 24.576-49.152 32.768-77.824 53.248-180.224-94.208-323.584-204.8-372.736 0-40.96 16.384-73.728 28.672-106.496-28.672 8.192-57.344 24.576-77.824 36.864-8.192 8.192-16.384 12.288-24.576 20.48l-16.384 16.384c-12.288-4.096-28.672-4.096-40.96-8.192s-28.672-4.096-45.056-4.096c-4.096-20.48-8.192-36.864-16.384-53.248 32.768 0 61.44 4.096 86.016 12.288 49.152-45.056 151.552-90.112 241.664-94.208-16.384 28.672-32.768 57.344-49.152 90.112-8.192 20.48-16.384 45.056-24.576 65.536 20.48 16.384 45.056 28.672 65.536 45.056 57.344 45.056 98.304 106.496 126.976 176.128 28.672 81.92 8.192 200.704-28.672 266.24zM557.056 494.592c-8.192 8.192-16.384 8.192-28.672 12.288-28.672-12.288-45.056-20.48-53.248-53.248-8.192-45.056 12.288-118.784 53.248-114.688 57.344 4.096 69.632 122.88 28.672 155.648zM348.16 220.16h-40.96v-122.88h-122.88v-40.96h122.88v-122.88h40.96v122.88h122.88v40.96h-122.88v122.88z"  horiz-adv-x="1024" />

    
    <glyph glyph-name="zxgx" unicode="&#58898;" d="M911.36 370.346667c0 54.613333-13.653333 109.226667-34.133333 157.013333C856.746667 575.146667 826.026667 622.933333 785.066667 657.066667c-37.546667 37.546667-85.333333 64.853333-133.12 85.333333-47.786667 20.48-102.4 27.306667-153.6 27.306667s-105.813333-13.653333-153.6-34.133334c-44.373333-17.066667-88.746667-47.786667-126.293334-85.333333C184.32 612.6933329999999 157.013333 568.3199999999999 136.533333 520.5333330000001c-17.066667-47.786667-27.306667-98.986667-27.306666-150.186666 0-51.2 13.653333-102.4 34.133333-146.773334 20.48-47.786667 51.2-88.746667 85.333333-122.88 37.546667-34.133333 78.506667-61.44 126.293334-78.506666 47.786667-17.066667 95.573333-27.306667 143.36-23.893334 47.786667 0 98.986667 10.24 143.36 30.72 44.373333 20.48 85.333333 47.786667 119.466666 81.92s58.026667 75.093333 78.506667 119.466667c10.24 27.306667 17.066667 54.613333 20.48 85.333333h3.413333c27.306667 0 51.2 23.893333 51.2 51.2-3.413333 0-3.413333 3.413333-3.413333 3.413334z m-81.92-136.533334c-20.48-44.373333-47.786667-81.92-78.506667-112.64-34.133333-30.72-75.093333-58.026667-116.053333-75.093333-44.373333-17.066667-88.746667-23.893333-136.533333-23.893333-44.373333 0-92.16 10.24-133.12 30.72-40.96 17.066667-78.506667 44.373333-109.226667 78.506666-30.72 34.133333-54.613333 71.68-71.68 112.64-13.653333 37.546667-23.893333 81.92-20.48 126.293334 0 44.373333 10.24 88.746667 27.306667 126.293333 17.066667 40.96 44.373333 75.093333 75.093333 105.813333 30.72 30.72 68.266667 54.613333 109.226667 68.266667 40.96 17.066667 81.92 23.893333 126.293333 20.48 40.96 0 85.333333-10.24 122.88-27.306667s71.68-40.96 102.4-71.68c27.306667-30.72 51.2-64.853333 64.853333-102.4 13.653333-37.546667 20.48-78.506667 20.48-119.466666v-3.413334c0-27.306667 20.48-47.786667 47.786667-51.2-10.24-27.306667-17.066667-54.613333-30.72-81.92z"  horiz-adv-x="1024" />

    
    <glyph glyph-name="tupianicon" unicode="&#58900;" d="M1109.333333 896H85.333333C42.666667 896 0 853.333333 0 810.666667v-853.333334c0-42.666667 42.666667-85.333333 85.333333-85.333333h1024c42.666667 0 85.333333 42.666667 85.333334 85.333333V810.666667c0 42.666667-42.666667 85.333333-85.333334 85.333333z m-85.333333-853.333333H170.666667V725.333333h853.333333v-682.666666zM332.8 477.866667c51.2 0 85.333333 34.133333 85.333333 85.333333s-34.133333 85.333333-85.333333 85.333333-85.333333-34.133333-85.333333-85.333333 34.133333-85.333333 85.333333-85.333333z m426.666667 85.333333l-170.666667-256-170.666667 85.333333-170.666666-170.666666v-85.333334h682.666666v170.666667l-170.666666 256z"  horiz-adv-x="1194" />

    
    <glyph glyph-name="dianhuahuru" unicode="&#59047;" d="M992.0292 125.76167099999998l-147.195308 147.675293a101.756757 101.756757 0 0 1-73.437659 31.99898 109.116522 109.116522 0 0 1-79.99745-31.99898l-60.638068-60.798062a874.692119 874.692119 0 0 0-164.794747 123.356068 899.011344 899.011344 0 0 0-123.196073 167.034676l60.318078 60.478072a108.796532 108.796532 0 0 1 1.599949 153.275115l-147.515298 147.195308a101.916751 101.916751 0 0 1-73.597655 31.99898 110.396481 110.396481 0 0 1-79.99745-31.99898 429.266317 429.266317 0 0 1-82.237378-114.716344 221.752932 221.752932 0 0 1-18.239419-70.397756c-20.159357-175.194416 56.79819-331.349438 265.591534-539.182813C513.324459-105.91094399999997 720.03787-127.99023999999997 787.075733-127.99023999999997a181.274222 181.274222 0 0 1 22.079296 1.119964 283.510963 283.510963 0 0 1 68.797807 17.919429A440.945945 440.945945 0 0 1 992.0292-27.833433000000014a110.396481 110.396481 0 0 1 31.99898 78.877486 104.79666 104.79666 0 0 1-31.99898 74.717618z m-44.478582-109.756501a382.067822 382.067822 0 0 0-94.077002-67.677843 226.552779 226.552779 0 0 0-53.438296-12.319607c-2.079934 0-214.873151-23.83924-486.544492 248.79207C119.577009 376.63367500000004 48.059289 517.909172 65.658728 672.784235a161.114864 161.114864 0 0 0 13.279577 51.518358A370.868179 370.868179 0 0 0 147.896107 819.019574a47.99847 47.99847 0 0 0 34.238908 14.079551 40.15872 40.15872 0 0 0 29.279067-12.479602l148.635262-148.635262a45.918536 45.918536 0 0 0-1.599949-63.997961l-75.517593-75.837582a31.99898 31.99898 0 0 1-9.119709-22.079296c0-28.639087 87.037226-157.114992 147.675293-218.073049C479.245545 234.078219 601.641644 146.08102399999996 635.240573 143.841095a31.99898 31.99898 0 0 1 24.319224 9.119709l75.517593 75.837583a47.99847 47.99847 0 0 0 34.238909 14.079551 39.998725 39.998725 0 0 0 29.279067-12.479602l147.995282-148.475267a42.558643 42.558643 0 0 0 13.279577-30.399031 47.99847 47.99847 0 0 0-12.319607-35.518868zM906.271934 487.350146H663.55967L924.511352 748.301828a30.079041 30.079041 0 0 1 0 42.398648l-2.879908 2.879909a30.079041 30.079041 0 0 1-41.598674 0L618.281113 532.468708V775.340966a31.99898 31.99898 0 0 1-63.99796 0v-319.9898a31.99898 31.99898 0 0 1 31.99898-31.99898h319.989801a31.99898 31.99898 0 0 1 0 63.99796z"  horiz-adv-x="1024" />

    
    <glyph glyph-name="guanbiyuyin" unicode="&#59050;" d="M755.2 193.60000000000002c68.8 68.8 107.2 161.6 108.8 259.2v4.8c0 11.2-11.2 22.4-24 22.4s-24-9.6-24-20.8c0-179.2-145.6-326.4-324.8-326.4-41.6 0-81.6 8-118.4 22.4l-33.6-38.4c41.6-19.2 86.4-28.8 132.8-32v-158.4H228.8v-1.6c-12.8 0-24-9.6-24-22.4 0-12.8 11.2-22.4 24-22.4v-1.6h536v1.6c12.8 0 24 9.6 24 22.4s-11.2 22.4-24 22.4v1.6H521.6v158.4c88 8 171.2 44.8 233.6 108.8zM256 169.60000000000002l32 36.8c-72 59.2-118.4 148.8-120 249.6v1.6c0 11.2-11.2 22.4-24 22.4s-24-9.6-24-20.8c0-99.2 38.4-193.6 108.8-264 8-9.6 17.6-19.2 27.2-25.6zM326.4 249.60000000000002l32 36.8c-40 36.8-64 88-64 145.6V643.2C294.4 752 384 841.6 492.8 841.6c100.8 0 185.6-76.8 196.8-176l40 44.8c-11.2 40-32 75.2-62.4 105.6-48 48-108.8 73.6-174.4 73.6s-128-25.6-174.4-72c-46.4-46.4-72-108.8-72-174.4V432c0-65.6 25.6-128 72-174.4 1.6-3.2 4.8-4.8 8-8zM492.8 233.60000000000002c-16 0-30.4 1.6-44.8 4.8l-35.2-40c25.6-8 52.8-12.8 80-12.8 65.6 0 128 25.6 174.4 72 46.4 46.4 72 108.8 72 174.4v140.8l-48-54.4V432c0-110.4-89.6-198.4-198.4-198.4zM233.6 27.200000000000045l592 678.4c9.6 11.2 11.2 28.8 0 36.8-9.6 9.6-25.6 6.4-35.2-4.8l-592-678.4c-9.6-11.2-11.2-28.8 0-36.8 8-9.6 25.6-6.4 35.2 4.8z"  horiz-adv-x="1024" />

    
    <glyph glyph-name="yuyin" unicode="&#59051;" d="M521.6 84.79999999999995c88 8 169.6 44.8 233.6 108.8 68.8 68.8 107.2 161.6 108.8 259.2v4.8c0 11.2-11.2 22.4-24 22.4s-24-9.6-24-20.8c0-177.6-142.4-321.6-320-324.8-176 3.2-320 147.2-320 324.8 0 11.2-11.2 20.8-24 20.8S128 470.4 128 457.6v-4.8c1.6-97.6 40-188.8 108.8-259.2 64-64 145.6-100.8 233.6-108.8v-158.4H228.8v-1.6c-12.8 0-24-9.6-24-22.4s11.2-22.4 24-22.4v-1.6h536v1.6c12.8 0 24 9.6 24 22.4s-11.2 22.4-24 22.4v1.6H521.6v158.4zM667.2 817.6C620.8 864 558.4 889.6 492.8 889.6c-65.6 0-128-25.6-174.4-72-46.4-46.4-72-108.8-72-174.4V432c0-16 1.6-32 4.8-48 9.6-48 32-91.2 67.2-126.4l8-8c25.6-24 54.4-40 86.4-51.2 1.6 0 3.2-1.6 4.8-1.6 3.2-1.6 6.4-1.6 8-3.2 4.8-1.6 8-1.6 12.8-3.2 3.2 0 6.4-1.6 8-1.6 4.8-1.6 9.6-1.6 14.4-1.6 3.2 0 4.8 0 8-1.6 8 0 14.4-1.6 22.4-1.6 8 0 14.4 0 22.4 1.6 3.2 0 4.8 0 8 1.6 4.8 0 9.6 1.6 14.4 1.6 3.2 0 6.4 1.6 8 1.6 4.8 1.6 9.6 1.6 12.8 3.2 3.2 1.6 6.4 1.6 8 3.2 1.6 0 3.2 1.6 4.8 1.6 32 11.2 60.8 28.8 86.4 51.2l8 8C710.4 304 736 366.4 736 432V643.2c3.2 65.6-22.4 126.4-68.8 174.4z m24-300.8V432c0-94.4-67.2-174.4-155.2-193.6-4.8-1.6-9.6-1.6-14.4-3.2-1.6 0-4.8 0-6.4-1.6-6.4 0-14.4-1.6-22.4-1.6-8 0-14.4 0-22.4 1.6-1.6 0-4.8 0-6.4 1.6-4.8 0-9.6 1.6-14.4 3.2-36.8 8-68.8 25.6-94.4 51.2l-8 8c-1.6 1.6-3.2 4.8-6.4 6.4-3.2 3.2-4.8 6.4-6.4 8-1.6 1.6-3.2 4.8-4.8 6.4-1.6 3.2-4.8 6.4-6.4 9.6-1.6 1.6-3.2 4.8-4.8 6.4l-4.8 9.6c-1.6 3.2-3.2 4.8-3.2 8-1.6 3.2-3.2 8-4.8 11.2 0 3.2-1.6 4.8-1.6 8-1.6 3.2-1.6 8-3.2 12.8 0 3.2-1.6 4.8-1.6 8-1.6 4.8-1.6 9.6-1.6 14.4 0 1.6 0 4.8-1.6 6.4 0 6.4-1.6 14.4-1.6 20.8V643.2c0 8 0 16 1.6 24 9.6 80 67.2 145.6 142.4 168 6.4 1.6 11.2 3.2 17.6 4.8h3.2c4.8 1.6 9.6 1.6 16 1.6h35.2c4.8 0 11.2-1.6 16-1.6h3.2c6.4-1.6 11.2-3.2 17.6-4.8 75.2-22.4 132.8-88 142.4-168 1.6-8 1.6-16 1.6-24v-126.4z"  horiz-adv-x="1024" />

    
    <glyph glyph-name="zuixiaohua" unicode="&#59053;" d="M70.4 467.2h883.2v-164.8H70.4V467.2z"  horiz-adv-x="1024" />

    
    <glyph glyph-name="zuidahua" unicode="&#59055;" d="M891.2-4.7999999999999545H124.8V760h764.8v-764.8h1.6zM316.8 568v-382.4h382.4V568H316.8z"  horiz-adv-x="1024" />

    
    <glyph glyph-name="shanchu" unicode="&#59056;" d="M998.4 844.8h-409.6v51.2h-153.6v-51.2h-409.6v-51.2h102.4v-921.6h768V793.6h102.4v51.2z m-153.6-921.6h-665.6V793.6h665.6v-870.4z m-512 716.8v-563.2l97.28 5.12V634.88l-97.28 5.12z m256 0l5.12-558.08 97.28-5.12V640h-102.4z"  horiz-adv-x="1024" />

    
    <glyph glyph-name="fenpei" unicode="&#59057;" d="M1024.512 537.088c0-7.68-3.072-15.872-8.192-19.968l-320-316.928c-3.072-4.096-8.192-6.144-12.8-6.144-3.072 0-6.144 0-9.728 2.048-6.656 4.096-11.264 13.824-11.264 23.552l-4.608 116.736h-332.8l-4.608 160.768-267.264-265.728 267.264-265.728 4.608 162.304h207.872v-51.712h-166.4l-4.608-164.352c0-9.728-4.608-17.92-11.264-23.552h-9.728c-4.608 0-9.728 2.048-12.8 6.144l-320 316.928c-4.608 4.096-8.192 11.776-8.192 19.968 0 7.68 3.072 15.872 8.192 19.968L328.192 568.3199999999999c6.144 6.144 14.336 7.68 22.528 4.096 6.144-4.096 11.264-13.824 11.264-23.552l4.608-162.304h332.8v-100.864l271.872 251.904-271.872 263.68v-154.624h-207.872v51.712h166.4l4.608 156.672c0 9.728 4.608 17.92 11.264 23.552 6.656 4.096 15.872 4.096 22.528-4.096l320-316.928c5.12-6.656 8.192-12.288 8.192-20.48z"  horiz-adv-x="1024" />

    
    <glyph glyph-name="jiqirentouxiang" unicode="&#58884;" d="M78.4 297.6h40V534.4H78.4v-236.8zM0 376h40v118.4H0v-118.4z m361.6 0c49.6 0 89.6 40 89.6 88 0 49.6-40 88-89.6 88-49.6 0-89.6-40-89.6-88s40-88 89.6-88z m0 148.8c33.6 0 60.8-27.2 60.8-59.2s-27.2-59.2-60.8-59.2c-33.6 0-60.8 27.2-60.8 59.2s27.2 59.2 60.8 59.2zM630.4 809.6H393.6v-118.4H156.8v-472h236.8v-40h-78.4v-236.8h393.6V179.20000000000005h-78.4v40h236.8V691.2H630.4V809.6zM433.6 771.2h156.8v-78.4h-156.8V771.2z m235.2-630.4V-16H355.2v156.8h78.4v78.4h156.8v-78.4h78.4z m158.4 512v-393.6H196.8V652.8h630.4zM662.4 376c49.6 0 89.6 40 89.6 88 0 49.6-40 88-89.6 88-49.6 0-89.6-40-89.6-88s40-88 89.6-88z m0 148.8c33.6 0 60.8-27.2 60.8-59.2s-27.2-59.2-60.8-59.2c-33.6 0-60.8 27.2-60.8 59.2s27.2 59.2 60.8 59.2z m321.6-30.4v-118.4H1024v118.4h-40z m-78.4-196.8h40V534.4h-40v-236.8z"  horiz-adv-x="1024" />

    
    <glyph glyph-name="dailingqu" unicode="&#59059;" d="M71.84 455.84A71.84 71.84 0 1 1 144 384a71.84 71.84 0 0 1-72.16 71.84z m279.36 0A71.84 71.84 0 1 1 422.88 384a71.84 71.84 0 0 1-71.84 71.84z m279.36 0A71.84 71.84 0 1 1 702.08 384a71.84 71.84 0 0 1-71.68 71.84z m196.32 144l-54.08-54.4L934.24 384 772.8 222.55999999999995l53.76-53.76L1024 384z"  horiz-adv-x="1024" />

    
    <glyph glyph-name="font" unicode="&#59027;" d="M507.904 787.456h5.632l240.64-513.536h-487.936L507.904 787.456z m522.24-886.784L552.96 870.4h-88.576L0-99.32799999999997h88.576l153.6 310.272h547.84l148.48-310.272H1030.144z"  horiz-adv-x="1030" />

    
    <glyph glyph-name="hulianwang" unicode="&#58995;" d="M113.664 462.336c57.344 198.656 185.344 338.944 417.792 359.936 15.872 1.536 38.4 0 55.808 3.072 15.872 3.072 35.328 14.336 52.736 22.528 75.264 28.672 236.544 81.408 320 17.408 72.192-55.808 57.344-193.536 14.336-283.136 33.792-70.144 60.928-167.936 45.056-278.528-206.336-8.192-510.464 1.536-712.192 0 11.776-98.816 95.744-215.04 204.8-256 252.928-65.024 343.04 95.744 377.344 158.72h112.64c-64-183.808-213.504-293.376-430.08-274.944-59.904 12.288-92.16 13.312-141.824 32.256-102.4-75.264-329.216-137.216-400.896-42.496-55.808 72.192-19.456 201.728 11.264 286.208 62.464 171.008 179.2 342.528 294.4 438.272 0 3.072 3.072 3.072 3.072 8.192-91.136-49.152-153.6-124.416-224.256-191.488z m870.4 268.8c-3.072 123.392-163.328 112.128-247.808 60.928 94.208-36.864 163.328-100.864 219.136-177.664 12.8 39.936 30.72 72.192 28.672 116.736zM307.2 400.896l617.984-1.536c-77.824 450.56-583.68 369.152-617.984 1.536z m-225.28-412.16c19.456-112.128 240.128-33.28 312.32 16.384-92.672 52.736-193.024 194.56-185.856 367.104C129.536 267.77599999999995 69.12 62.464000000000055 81.92-11.26400000000001z"  horiz-adv-x="1024" />

    
    <glyph glyph-name="tupian" unicode="&#58987;" d="M1028.8-17.600000000000023c0-32-40-44.8-72-44.8l-912 1.6C12.8-60.799999999999955 0-48 0-16V787.2C0 819.2 40 832 72 832h884.8c32 0 72-14.4 72-44.8v-804.8z m-44.8 760c0 24-33.6 49.6-57.6 49.6l-836.8-4.8c-24 0-44.8-20.8-44.8-44.8v-715.2c0-24 20.8-44.8 44.8-44.8l836.8-4.8c24 0 57.6 25.6 57.6 49.6V742.4zM265.6 680c-52.8 0-96-43.2-96-96s43.2-96 96-96 96 43.2 96 96-43.2 96-96 96z m51.2-96c0-28.8-24-52.8-52.8-52.8s-51.2 24-51.2 52.8c0 28.8 24 52.8 52.8 52.8s51.2-24 51.2-52.8zM128 166.39999999999998l185.6 139.2 100.8-102.4L664 452.8l233.6-235.2 30.4 33.6-264 264-249.6-248-96 96-216-160 25.6-36.8z m766.4 38.4h-312V160H896v44.8h-1.6z m0-132.8h-536v-44.8h536V72z"  horiz-adv-x="1028" />

    
    <glyph glyph-name="heimingdan" unicode="&#59039;" d="M787.204303 337.79230600000005c-129.074976 0-233.151242-103.566088-233.151242-233.151242S658.129327-128 787.204303-128 1020.355545-24.433911999999964 1020.355545 105.15124200000002s-103.566088 232.641064-233.151242 232.641064z m-173.460443-232.641064c0 95.403243 78.057199 173.460443 173.460443 173.460443 37.242977 0 74.996133-13.7748 105.606799-35.712444l-251.517642-229.579998c-17.346044 27.039422-27.5496 59.180622-27.5496 91.831999z m173.460443-173.460443c-37.242977 0-74.996133 13.7748-105.606799 35.712444l251.517642 229.579998c16.835866-27.039422 27.039422-57.650088 27.039422-91.831999 0.510178-95.403243-77.547021-173.460443-172.950265-173.460443zM562.726083 299.01879599999995c3.571244 0 5.101778-1.530533 8.673022-1.530534 15.305333-8.673022 34.181911-1.530533 42.344755 11.734089 8.673022 15.305333 1.530533 34.181911-11.734088 42.344755-5.101778 1.530533-8.673022 3.571244-13.7748 3.571245-1.530533 0-1.530533 0-3.571245 1.530533-6.632311 3.571244-15.305333 5.101778-21.937644 8.673022 86.730221 49.487244 146.421021 141.319243 146.421021 248.456575-1.530533 158.155109-132.646221 285.699553-290.801331 282.128308-154.583865-1.530533-280.597775-127.544443-282.128308-282.128308 0-110.708577 62.751866-204.071109 154.583865-253.558353C122.442665 300.54932899999994 6.632311 143.924753 0-36.168001000000004v-1.530533c0-16.835866 13.7748-30.610666 30.610666-30.610667 21.937644 0 37.242977 13.7748 37.242978 30.610667v1.530533C76.526666 162.80133 233.151242 315.85466199999996 433.651107 315.85466199999996c44.385466 0 88.260755-3.571244 129.074976-16.835866z m-142.849776 89.791288c-122.442665 0-222.947687 100.505021-222.947687 222.947686s100.505021 222.947687 222.947687 222.947687S642.823993 734.200436 642.823993 611.7577699999999s-100.505021-222.947687-222.947686-222.947686z"  horiz-adv-x="1024" />

    
    <glyph glyph-name="zhishikujiansuo" unicode="&#58979;" d="M1009.664-14.336000000000013L902.656 81.91999999999996c12.8 17.408 24.064 35.328 31.744 55.808 11.264 27.136 15.872 55.808 15.872 86.528s-4.608 59.392-15.872 86.528c-11.264 27.136-25.6 49.664-45.056 70.656-19.456 20.992-41.472 36.864-65.536 48.128-25.6 11.264-52.736 17.408-81.408 17.408s-55.808-6.144-81.408-17.408-46.592-27.136-65.536-48.128c-19.456-20.992-35.328-44.544-45.056-70.656-11.264-27.136-15.872-55.808-15.872-86.528s4.608-59.392 15.872-86.528c11.264-27.136 25.6-49.664 45.056-70.656 19.456-20.992 41.472-36.864 65.536-48.128 25.6-11.264 52.736-17.408 81.408-17.408s55.808 6.656 81.408 17.408c20.992 9.728 39.936 22.528 55.808 38.4l107.008-97.792c3.072-3.072 6.144-4.608 11.264-4.608s9.728 1.536 12.8 6.656c5.12 6.656 5.12 17.408-1.024 24.064z m-267.264 49.664c-97.792 0-176.128 84.992-176.128 188.928s78.336 188.928 176.128 188.928 176.128-84.992 176.128-188.928-79.872-188.928-176.128-188.928zM998.4-49.66399999999999c-4.608 0-11.264 1.536-14.336 6.144l-103.936 92.672c-15.872-14.336-35.328-27.136-54.272-35.328-27.136-11.264-54.272-17.408-82.944-17.408s-57.344 6.144-83.456 17.408c-25.6 11.264-48.128 28.672-68.608 49.664-19.456 20.992-35.328 45.056-46.592 72.192-11.264 27.136-15.872 57.344-15.872 88.064s6.656 60.928 15.872 88.064c11.264 27.136 25.6 51.2 46.592 72.192 19.456 20.992 43.008 36.864 68.608 49.664 27.136 11.264 54.272 17.408 83.456 17.408 28.672 0 57.344-6.144 82.944-17.408s48.128-28.672 68.608-49.664c19.456-20.992 35.328-44.544 46.592-72.192s15.872-57.344 15.872-88.064-6.144-60.928-15.872-88.064c-8.192-19.456-17.408-36.864-28.672-52.736l102.4-92.672c4.608-3.072 6.144-9.728 8.192-15.872 0-6.656-1.536-11.264-4.608-15.872-7.168-6.656-13.824-8.192-19.968-8.192z m-118.272 113.664l110.592-100.864c1.536-1.536 4.608-3.072 8.192-3.072s6.144 1.536 8.192 3.072c1.536 1.536 3.072 4.608 3.072 8.192 0 3.072-1.536 6.656-3.072 8.192l-112.128 100.864 3.072 4.608c12.8 15.872 24.064 35.328 30.208 54.272 11.264 27.136 15.872 54.272 15.872 84.992 0 28.672-4.608 57.344-15.872 84.992-9.728 25.6-25.6 49.664-43.008 68.608-19.456 19.456-39.936 35.328-64 46.592-25.6 11.264-51.2 17.408-79.872 17.408-27.136 0-54.272-6.144-79.872-17.408-24.064-11.264-46.592-27.136-64-46.592-19.456-19.456-33.792-43.008-43.008-68.608-11.264-27.136-15.872-54.272-15.872-84.992 0-28.672 4.608-57.344 15.872-84.992 9.728-25.6 25.6-49.664 43.008-68.608 19.456-19.456 39.936-35.328 64-46.592 25.6-11.264 51.2-17.408 79.872-17.408 27.136 0 54.272 6.144 79.872 17.408 20.992 9.728 38.4 20.992 54.272 36.864l4.608 3.072z m-137.728-33.792c-99.328 0-180.736 86.528-180.736 193.536s81.408 193.536 180.736 193.536 180.736-86.528 180.736-193.536-81.408-193.536-180.736-193.536z m0 376.32c-94.208 0-169.472-81.408-169.472-182.272s76.8-182.272 169.472-182.272c94.208-1.536 169.472 81.408 169.472 182.272S836.608 406.528 742.4 406.528zM0 855.04V87.55200000000002h243.2c45.056 0 121.856-16.896 132.608-52.736h45.056c11.264 37.376 88.064 52.736 132.608 52.736h20.992V140.288h-20.992c-43.008 0-113.664 0-132.608-39.424v30.208c1.536 37.376 0 86.528 0 88.064v476.672c0 61.952 55.808 107.008 110.592 107.008h220.672v-399.36h45.056V855.04h-264.192c-57.344 0-107.008-35.84-134.144-86.528C371.712 819.2 322.048 855.04 266.24 855.04H0z m45.056-52.736h220.672c54.272 0 110.592-43.008 110.592-104.96v-476.672c0-2.048-1.536-52.736 0-88.064V102.39999999999998c-19.456 39.424-89.6 39.424-132.608 39.424H43.008v660.48h2.048z"  horiz-adv-x="1024" />

    
    <glyph glyph-name="biaoqing" unicode="&#58990;" d="M520 129.60000000000002c-99.2 0-180.8 73.6-193.6 169.6h-49.6C291.2 176 393.6 80 520 80c126.4 0 228.8 96 243.2 217.6h-49.6c-12.8-94.4-94.4-168-193.6-168zM512 896C228.8 896 0 667.2 0 384s228.8-512 512-512 512 228.8 512 512S795.2 896 512 896z m0-972.8C257.6-76.79999999999995 51.2 129.60000000000002 51.2 384S257.6 844.8 512 844.8 972.8 638.4 972.8 384 766.4-76.79999999999995 512-76.79999999999995z m144 515.2c30.4 0 56 25.6 56 56s-25.6 56-56 56-56-25.6-56-56 24-56 56-56z m-292.8 0c30.4 0 56 25.6 56 56s-25.6 56-56 56-56-25.6-56-56 24-56 56-56z"  horiz-adv-x="1024" />

    
    <glyph glyph-name="shipin" unicode="&#59052;" d="M960.01872 90.72000000000003l-291.2 112v-119.04a45.28 45.28 0 0 0-44.8-45.92H198.09872a23.04 23.04 0 0 0-23.04 23.04 23.04 23.04 0 0 0 23.04 23.04H608.01872a16 16 0 0 1 16 16V668.16a16 16 0 0 1-16 16H62.25872a16 16 0 0 1-16-16v-568.32a16 16 0 0 1 16-16h42.24A23.04 23.04 0 0 0 128.01872 60.799999999999955a23.04 23.04 0 0 0-23.04-23.04H48.01872a48 48 0 0 0-48 48v598.4a45.12 45.12 0 0 0 46.4 46.4h576.96a45.92 45.92 0 0 0 46.24-46.24v-118.56L960.01872 676s64 29.28 64-33.28v-516.8c0-61.92-64-35.2-64-35.2z m18.88 537.92l-309.44-114.56v-260.32l310.08-117.6z m-801.44-26.08a80 80 0 1 0-66.88-66.72 80 80 0 0 0 66.88 66.72z"  horiz-adv-x="1024" />

    
    <glyph glyph-name="pingjia" unicode="&#59006;" d="M859.36 672.8A53.76 53.76 0 0 1 812.32 704 346.56 346.56 0 0 1 656 677.92a406.72 406.72 0 0 1-112 125.6 51.2 51.2 0 0 1-6.08 4.48 53.6 53.6 0 0 1-48.96 4 52 52 0 0 1-12.96-7.68 416 416 0 0 1-112-125.12A401.76 401.76 0 0 1 211.36 704a53.92 53.92 0 0 1-46.72-30.56c-43.84-101.12-34.72-264.64 32-372.64 57.12-93.44 157.12-140.96 269.92-144h16.64v-176.16a28.8 28.8 0 0 1 57.44 0V155.84000000000003h17.28c89.6 0 212.8 50.88 269.92 144 66.4 108.48 75.52 271.84 31.52 372.96zM800 357.6a277.6 277.6 0 0 0-226.24-145.12 663.36 663.36 0 0 0-118.56 1.6c-91.2 12.64-177.12 38.56-229.92 144-38.08 75.84-45.76 216.32-13.12 293.12a6.4 6.4 0 0 0 5.6 3.84h8.48a373.6 373.6 0 0 0 145.28-33.44l19.04-8a455.84 455.84 0 0 0 114.08 151.04l1.6 1.28 1.92 1.12a7.04 7.04 0 0 0 6.24 0l2.24-1.76c72.96-59.52 113.44-157.28 113.44-157.28l19.2 8.32a373.44 373.44 0 0 0 148.48 34.72h8.64a6.24 6.24 0 0 0 5.76-3.84c30.88-88.48 18.56-227.84-12.16-289.6zM240 137.91999999999996a21.76 21.76 0 1 1 0-43.68 123.04 123.04 0 0 0 125.28-120.48 22.72 22.72 0 0 1 45.28 0A167.68 167.68 0 0 1 240 137.91999999999996z m549.28 0a167.68 167.68 0 0 1-170.56-164.16 22.72 22.72 0 0 1 45.28 0 123.04 123.04 0 0 0 125.28 120.48 21.76 21.76 0 1 1 0 43.68z"  horiz-adv-x="1024" />

    
    <glyph glyph-name="zhankai1" unicode="&#59078;" d="M824.96 641.28A87.84 87.84 0 0 0 893.28 672a96 96 0 0 0 69.12-29.44A91.2 91.2 0 0 0 992 573.9200000000001a97.44 97.44 0 0 0-30.4-70.56L584.48 126.24000000000001a106.08 106.08 0 0 0-148.32 0L59.36 503.36A102.88 102.88 0 0 0 32 573.9200000000001a92.16 92.16 0 0 0 27.36 67.52 95.04 95.04 0 0 0 139.68 0L512 331.67999999999995z m0 0"  horiz-adv-x="1024" />

    
    <glyph glyph-name="shouqi" unicode="&#59079;" d="M512 436.32L199.04 126.72000000000003a95.04 95.04 0 0 0-139.68 0A92.16 92.16 0 0 0 32 194.08000000000004a102.88 102.88 0 0 0 27.36 70.56l376.64 377.12a106.08 106.08 0 0 0 148.32 0L961.6 264.64a97.44 97.44 0 0 0 30.4-70.56 91.2 91.2 0 0 0-29.6-68.64A96 96 0 0 0 893.28 96a87.84 87.84 0 0 0-68.32 30.72z m312.96-309.6"  horiz-adv-x="1024" />

    
    <glyph glyph-name="diannao" unicode="&#58971;" d="M0 145.60000000000002h1022.4V792H0v-646.4z m969.6 54.4H54.4V737.6h915.2v-537.6zM268.8 38.39999999999998h484.8V-16H268.8v54.4z"  horiz-adv-x="1024" />

    
    <glyph glyph-name="youjian" unicode="&#58960;" d="M0-64V832a32 32 0 0 0 32 32h958.4a32 32 0 0 0 32-32v-268.16a32 32 0 0 0-17.76-28.64l-478.56-240a32 32 0 0 0-29.6 0L187.36 464.96a34.56 34.56 0 0 0-14.08 46.4 34.56 34.56 0 0 0 47.04 14.24l283.36-152.96a16 16 0 0 1 14.88 0c56 27.36 408.48 201.6 439.52 216.48V800H64v-832h896V320a32 32 0 0 0 32 32 32 32 0 0 0 32-32v-384a32 32 0 0 0-32-32H32a32 32 0 0 0-32 32z"  horiz-adv-x="1024" />

    
    <glyph glyph-name="gongdan" unicode="&#58941;" d="M780.594 533.063v60.469h-538.594v-60.469h538.594zM361.531 773.531h299.531v59.063h-299.531v-59.063zM780.594 832.594v-60.469h119.531v-779.063h-777.656v780.469h119.531v59.063h-180v-898.594h898.594v898.594h-180zM780.594 353.062v60.469h-538.594v-60.469h538.594zM780.594 173.062v60.469h-538.594v-60.469h538.594z"  horiz-adv-x="1024" />

    
    <glyph glyph-name="waihu" unicode="&#58959;" d="M566.4 438.4a42.08 42.08 0 0 1 59.52 0l224 224v-193.76a42.4 42.4 0 1 1 84.64 0V763.52a41.6 41.6 0 0 1-43.68 43.68h-294.4a42.4 42.4 0 1 1 0-84.64h194.56l-224-224a42.08 42.08 0 0 1-0.64-60.16z m433.12-353.28l-157.76 158.24a81.76 81.76 0 0 1-115.68-1.6l-80-80.8c-17.44 1.12-134.24 75.68-206.4 148.16s-147.68 198.08-147.68 208l80 80.8a82.56 82.56 0 0 1 1.76 116.16l-157.6 158.72a81.76 81.76 0 0 1-115.68-1.76 426.72 426.72 0 0 1-80-111.04 205.92 205.92 0 0 1-16-65.6c-21.6-175.04 57.28-333.28 272-547.04C573.44-150.55999999999995 813.28-128 823.36-127.03999999999996a270.88 270.88 0 0 1 65.44 16.8 438.88 438.88 0 0 1 110.72 79.04 80.96 80.96 0 0 1 0 116.32z"  horiz-adv-x="1024" />

    
    <glyph glyph-name="lianxijihua" unicode="&#58948;" d="M995.2-128H32V835.2h180.8V896h60.8v-60.8h481.6V896H816v-60.8h180.8V-128zM936 776H816v-60.8h-60.8V776H273.6v-60.8h-60.8V776H92.8v-180.8h843.2V776z m0-241.6H92.8v-601.6h843.2V534.4zM264 320l68.8 33.6 120-180.8 300.8 241.6 60.8-60.8-360-300.8L264 320z"  horiz-adv-x="1024" />

    
    <glyph glyph-name="weixinzixun" unicode="&#58961;" d="M1024 270.24a250.88 250.88 0 0 1-84.32 183.04 338.4 338.4 0 0 1-201.12 87.36V544C706.72 692.3199999999999 547.84 804.16 368 804.16c-203.52 0-368-141.44-368-315.52 0-92.64 46.88-176.96 136.64-242.56l-30.72-92.64A17.92 17.92 0 0 1 112 134.08000000000004a18.56 18.56 0 0 1 19.84-2.4l116.8 58.4 13.92-3.04a510.56 510.56 0 0 1 105.92-13.92 169.28 169.28 0 0 1 44 6.56C456.96 71.51999999999998 576-1.2799999999999727 709.76-1.2799999999999727a436.48 436.48 0 0 1 102.4 16l89.76-48a19.68 19.68 0 0 1 8.48-2.4 16 16 0 0 1 11.2 3.68 18.08 18.08 0 0 1 6.4 19.2l-22.88 75.2C981.28 123.36000000000001 1024 197.44000000000005 1024 270.24z m-624-49.92h-2.4c-9.6 0-19.84-1.28-30.08-1.28a452.96 452.96 0 0 0-96 12.64l-19.2 3.68a24.96 24.96 0 0 1-11.36-1.28l-80-40.32 20.48 61.44a17.44 17.44 0 0 1-6.56 19.84C90.88 334.08000000000004 48 405.6 48 488.16 48 636.8 192 757.92 368 757.92c154.08 0 292-93.92 322.08-218.56-164.32-3.68-297.44-120.48-297.44-261.92a211.36 211.36 0 0 1 7.36-57.12z m464-128a16 16 0 0 1-6.08-18.72l12.64-42.72-54.24 29.44a19.52 19.52 0 0 1-8.48 2.4 10.08 10.08 0 0 1-4.16 0 403.2 403.2 0 0 0-96-16c-146.24 0-265.44 100.48-265.44 224s119.2 224 265.44 224c144 0 264.8-102.4 264.8-224 1.6-62.72-36.96-125.76-108.48-178.72zM764.64 330.08000000000004a43.36 36.96 0 1 1 86.72 0 43.36 36.96 0 1 1-86.72 0ZM572.64 330.08000000000004a43.36 36.96 0 1 1 86.72 0 43.36 36.96 0 1 1-86.72 0ZM200 585.44a52.64 45.6 0 1 1 105.28 0 52.64 45.6 0 1 1-105.28 0ZM444.32 585.44a52.64 45.6 0 1 1 105.28 0 52.64 45.6 0 1 1-105.28 0Z"  horiz-adv-x="1024" />

    
    <glyph glyph-name="huru" unicode="&#58996;" d="M597.92 426.4H892.8a42.4 42.4 0 0 1 0 84.64H698.24l224 224A42.08 42.08 0 0 1 864 795.2l-224-224V764.96a42.4 42.4 0 1 1-84.64 0v-294.88a41.6 41.6 0 0 1 43.68-43.68z m401.6-341.28l-157.76 158.24a81.76 81.76 0 0 1-115.68-1.6l-80-80.8c-17.44 1.12-134.24 75.68-206.4 148.16s-147.68 198.08-147.68 208l80 80.8a82.56 82.56 0 0 1 1.76 116.16l-157.6 158.72a81.76 81.76 0 0 1-115.68-1.76 426.72 426.72 0 0 1-80-111.04 205.92 205.92 0 0 1-16-65.6c-21.6-175.04 57.28-333.28 272-547.04C573.44-150.55999999999995 813.28-128 823.36-127.03999999999996a270.88 270.88 0 0 1 65.44 16.8 438.88 438.88 0 0 1 110.72 79.04 80.96 80.96 0 0 1 0 116.32z"  horiz-adv-x="1024" />

    
    <glyph glyph-name="yidongduan" unicode="&#58993;" d="M503.296 532.992c0 1.536 1.536 1.536 1.536 3.072 8.192 14.336 8.192 24.064 0 33.792-3.072 3.072-8.192 6.144-12.8 9.728-15.872 9.728-33.792 18.944-49.664 28.672-4.608 3.072-9.728 6.144-17.408 6.144-11.264 0-18.944-6.144-24.064-15.872l-143.872-253.952c-31.744-55.808-62.464-112.128-94.208-166.4-17.408-30.208-33.792-60.928-51.2-91.136-9.728-18.944-6.144-30.208 11.264-41.472 12.8-8.192 25.6-15.872 39.936-22.528l9.728-4.608c24.064-14.336 33.792-11.264 48.128 14.336 24.064 41.472 48.128 84.48 71.68 128 35.328 62.464 68.608 122.88 103.936 185.344 36.352 60.416 71.68 122.88 107.008 186.88zM928.256 62.976c4.608 6.144 6.144 12.8 6.144 20.992 0 9.728-4.608 17.408-8.192 25.6-6.144 12.8-161.28 305.152-180.736 340.48-38.4 71.68-78.336 142.336-118.272 212.48-20.992 36.864-43.008 75.264-64 112.128-18.944 30.208-35.328 62.464-59.392 91.136-6.144 6.144-11.264 18.944-22.528 14.336-9.728-4.608-6.144-17.408-4.608-27.136 4.608-24.064 11.264-46.592 18.944-68.608 15.872-41.472 33.792-81.408 51.2-122.88 30.208-70.144 59.392-142.336 91.136-212.48 15.872-35.328 174.08-357.888 196.608-397.824 9.728-15.872 24.064-24.064 41.472-20.992 11.264 1.536 20.992 4.608 30.208 11.264 9.216 5.12 17.408 11.776 22.016 21.504zM627.712 340.99199999999996l-3.072 3.072c-3.072 4.608-9.728 4.608-14.336 4.608h-131.072c-6.144 0-11.264-1.536-14.336-6.144-1.536-1.536-4.608-3.072-6.144-8.192-27.136-49.664-54.272-97.28-81.408-146.944-3.072-4.608-6.144-8.192-4.608-15.872h335.872v4.608c-28.16 56.32-55.296 110.592-80.896 164.864zM992.256 342.528c-4.608 1.536-9.728 4.608-15.872 4.608-43.008 3.072-86.528 0-131.072 0v-4.608c30.208-54.272 60.928-108.544 92.672-162.816 1.536-3.072 3.072-6.144 8.192-6.144 35.328-4.608 64 9.728 73.728 39.936 1.536 6.144 4.608 11.264 4.608 17.408 1.536 20.992 0 41.472 0 62.464 0 8.192-1.536 14.336-4.608 20.992-5.12 12.288-14.848 23.552-27.648 28.16zM990.72 8.70399999999995c-14.336 25.6-41.472 28.672-70.144 11.264-22.528-12.8-27.136-36.864-15.872-60.928 11.264-20.992 28.672-33.792 49.664-43.008 17.408-8.192 35.328-14.336 52.736-28.672 3.072 18.944 1.536 35.328 0 52.736-2.048 23.552-3.584 47.616-16.384 68.608zM84.48 173.05600000000004c3.072 1.536 4.608 4.608 8.192 8.192 24.064 38.4 46.592 78.336 70.144 119.808 8.192 14.336 17.408 28.672 25.6 43.008 1.536 1.536 1.536 3.072 3.072 4.608h-139.264c-6.144 0-12.8-1.536-18.944-4.608-17.408-8.192-31.744-27.136-31.744-48.128-1.536-24.064-1.536-46.592 0-68.608 1.536-28.672 28.672-51.2 55.808-54.272 9.216-4.608 18.944-3.072 27.136 0z"  horiz-adv-x="1025" />

    
    <glyph glyph-name="shouji" unicode="&#58989;" d="M781.312 763.392H194.56v88.064h586.24v-88.064z m0-579.584H194.56V718.336h586.24V183.808z m0-266.752H194.56V139.264h586.24v-222.208h0.512zM147.456 896v-1024h685.056V896H147.456z m438.784-846.336v-44.544h-195.072v44.544h195.072z"  horiz-adv-x="1024" />

    
    <glyph glyph-name="weibo" unicode="&#59089;" d="M757.76 415.744c-11.264 1.536-19.456 6.144-22.528 11.264-3.072 4.608-4.608 9.728-1.536 12.8l3.072 6.144s1.536 1.536 1.536 3.072 1.536 4.608 4.608 9.728c3.072 4.608 4.608 9.728 4.608 15.872 1.536 4.608 1.536 11.264 3.072 19.456v20.48c-1.536 6.144-3.072 14.336-6.144 22.528s-8.192 14.336-14.336 20.992c-11.264 11.264-25.6 17.408-43.008 20.992-17.408 3.072-35.328 3.072-52.736 0-17.408-3.072-33.792-6.144-49.664-11.264s-28.672-8.192-38.4-12.8l-15.872-6.144c-8.192-1.536-14.336-3.072-19.456-4.608h-11.264c-1.536 0-4.608 1.536-6.144 3.072s-1.536 3.072-1.536 8.192 0 8.192 1.536 11.264c0 3.072 1.536 8.192 3.072 14.336s3.072 11.264 3.072 15.872c0 9.728 0 17.408-1.536 25.6s-3.072 17.408-8.192 27.136c-3.072 9.728-9.728 17.408-17.408 24.064s-15.872 11.264-28.672 15.872c-11.264 3.072-25.6 4.608-43.008 3.072s-38.4-6.144-60.928-14.336c-27.136-9.728-54.272-24.064-82.944-41.472S204.288 599.552 183.296 578.56c-20.48-18.944-39.936-39.936-55.808-57.344-17.408-19.456-30.208-33.792-39.936-46.592l-12.8-19.456c-25.6-33.792-45.056-67.072-57.344-100.864-12.8-33.792-17.408-59.392-17.408-76.8v-24.064c4.608-36.864 15.872-70.656 35.328-100.864 17.408-30.208 39.936-54.272 65.536-72.192 25.6-17.408 55.808-33.792 89.6-46.592s67.072-22.528 99.328-28.672c32.256-6.656 65.536-9.728 100.864-12.8 57.344-4.608 118.272 0 179.2 12.8 62.464 14.336 119.808 36.864 173.056 70.656 52.736 33.792 91.136 73.728 113.664 119.808 12.8 27.136 20.992 52.736 20.992 76.8s-3.072 43.008-12.8 59.392c-8.192 15.872-19.456 28.672-33.792 39.936s-27.136 20.992-38.4 25.6c-13.824 13.312-25.088 16.384-34.816 18.432z m-356.864-363.52c-84.992-3.072-155.136 12.8-214.528 49.664-58.88 36.864-87.552 83.456-87.552 139.264s28.672 102.4 88.064 143.872c59.392 39.936 129.536 62.464 216.064 65.536 84.992 3.072 156.672-9.728 216.064-41.472s88.064-75.264 88.064-131.072-30.208-107.008-89.6-152.064-133.12-70.656-216.576-73.728z m-33.28 323.072c-22.528-1.536-43.008-8.192-60.928-15.872-17.408-8.192-32.256-17.408-41.472-28.672-9.728-11.264-19.456-22.528-25.6-33.792-6.144-12.8-11.264-24.064-14.336-35.328-3.072-11.264-4.608-22.528-4.608-31.744 0-9.728-1.536-17.408-1.536-22.528l1.536-9.728v-4.608c0-1.536 0-6.144 1.536-14.336s3.072-12.8 6.144-19.456c3.072-6.144 8.192-12.8 12.8-19.456s14.336-12.8 22.528-17.408c51.2-25.6 99.328-31.744 143.872-22.528 45.056 9.728 79.872 31.744 107.008 67.072 11.264 12.8 17.408 30.208 22.528 49.664 4.608 18.944 3.072 39.936-1.536 59.392s-14.336 38.4-25.6 54.272c-12.8 15.872-30.208 28.672-55.808 38.4-27.648 8.704-54.784 11.776-86.528 6.656z m-43.52-220.672c-4.608 0-9.728-1.536-12.8 0-4.608 0-8.192 1.536-11.264 1.536-3.072 1.536-6.144 3.072-11.264 4.608-3.072 1.536-6.144 3.072-8.192 6.144-1.536 3.072-4.608 4.608-6.144 8.192l-4.608 9.728c-1.536 3.072-1.536 8.192-1.536 11.264 0 8.192 1.536 17.408 6.144 25.6 4.608 8.192 11.264 15.872 19.456 20.992 8.192 4.608 17.408 9.728 27.136 9.728h20.992c6.144-1.536 12.8-3.072 17.408-6.656 4.608-3.072 8.192-6.656 12.8-9.728 3.072-3.072 6.144-8.192 8.192-12.8 1.536-4.608 1.536-9.728 1.536-15.872 0-8.192-3.072-15.872-8.192-24.064s-11.264-14.336-20.992-19.456c-9.216-4.608-17.408-7.68-28.672-9.216zM424.96 239.61599999999999c-4.608-3.072-11.264-6.656-17.408-4.608-6.144 0-9.728 3.072-12.8 8.192l-1.536 4.608c0 1.536-1.536 3.072-1.536 4.608v4.608c0 1.536 0 4.608 1.536 6.656l1.536 4.608c0 1.536 1.536 3.072 3.072 3.072l3.072 4.608c6.144 4.608 12.8 6.656 17.408 6.656 6.144 0 9.728-3.072 12.8-9.728 1.536-3.072 3.072-6.656 3.072-11.264s-1.536-8.192-3.072-11.264c-1.024-3.072-2.56-7.68-6.144-10.752z m414.72 244.736c4.608 0 9.728 1.536 12.8 3.072 3.072 1.536 6.144 4.608 9.728 8.192 1.536 3.072 3.072 8.192 4.608 11.264 0 0 1.536 1.536 1.536 3.072 9.728 89.6-22.528 139.264-94.208 152.064-20.992 3.072-39.936 4.608-59.392 1.536-4.608 0-9.728-1.536-14.336-4.608-4.608-3.072-8.192-6.144-9.728-11.264-3.072-4.608-4.608-8.192-4.608-12.8 0-8.192 3.072-14.336 8.192-19.456 4.608-4.608 12.8-8.192 19.456-8.192 60.928 14.336 94.208-4.608 97.792-59.392 1.536-12.8 0-25.6-1.536-36.864 0-8.192 3.072-14.336 8.192-19.456 6.656-5.632 13.312-7.168 21.504-7.168zM820.224 814.08c-33.792 8.192-79.872 6.144-137.728-4.608 0 0-1.536 0-1.536-1.536l-1.536-1.536-1.536-1.536c-8.192-1.536-15.872-8.192-20.992-14.336-4.608-8.192-8.192-15.872-8.192-24.064 0-11.264 3.072-20.992 11.264-28.672s17.408-11.264 28.672-11.264h3.072s3.072 0 4.608 1.536c3.072 0 6.656 1.536 8.192 1.536s6.656 1.536 9.728 1.536c3.072 1.536 6.144 1.536 9.728 3.072 3.072 1.536 8.192 1.536 15.872 1.536s17.408 0 28.672-1.536 24.064-4.608 36.864-8.192c12.8-3.072 27.136-11.264 41.472-17.408s27.136-15.872 41.472-28.672 25.6-27.136 35.328-43.008c20.992-46.592 24.064-91.136 11.264-132.608v-1.536s-1.536-3.072-1.536-6.144-1.536-6.144-1.536-8.192c0-1.536-1.536-6.144-1.536-11.264 0-4.608-1.536-8.192-1.536-11.264 0-6.144 1.536-12.8 6.656-17.408 3.072-4.608 8.192-8.192 14.336-9.728s12.8-3.072 20.992-3.072c22.528 0 35.328 12.8 38.4 39.936 9.728 30.208 14.336 59.392 15.872 86.528 1.536 27.136 0 52.736-6.656 73.728-4.608 20.992-12.8 39.936-22.528 59.392-9.728 17.408-22.528 33.792-35.328 46.592s-28.672 24.064-44.544 35.328-31.744 19.456-48.128 25.6c-15.36 1.536-31.744 6.144-47.616 11.264z"  horiz-adv-x="1026" />

    
    <glyph glyph-name="xuanzhong" unicode="&#59065;" d="M998.72 724a85.12 85.12 0 0 1-121.76 0L390.24 229.44000000000005 146.88 476.8a85.12 85.12 0 0 1-121.76 0 88.48 88.48 0 0 1 0-123.68l304-309.12a85.12 85.12 0 0 1 121.76 0l547.84 556.32a88.48 88.48 0 0 1 0 123.68z"  horiz-adv-x="1024" />

    
    <glyph glyph-name="qiangjie" unicode="&#59069;" d="M530.432 505.856c-31.744-12.8-46.592-22.528-54.272-57.344-11.264-46.592 14.336-123.392 55.808-118.272 60.928 4.608 72.192 128 30.208 163.328-7.68 5.632-18.944 7.168-31.744 12.288zM981.504 591.8720000000001c-14.336 24.576-30.208 48.128-48.128 70.144-6.656-17.408-15.872-33.792-27.648-48.128 7.168-9.216 13.312-18.944 19.968-28.672 15.872-24.064 25.6-52.736 35.328-81.408 55.808-193.536-102.4-344.064-219.136-398.336 1.536-41.472 19.456-79.872 31.744-113.664-30.208 8.192-60.928 24.064-84.992 39.936-8.192 6.144-17.408 14.336-25.6 20.992-4.608 6.144-12.8 12.8-17.408 19.456-14.336-3.072-28.672-6.144-43.008-8.192-39.936-8.192-97.792-12.8-140.8-4.608-112.128 19.456-192 45.056-264.192 99.328-55.808 41.472-103.936 100.352-126.464 174.08-46.592 150.528 35.328 284.672 119.808 350.208 51.2 38.4 107.008 67.072 176.128 88.064 25.6 4.608 51.2 11.264 76.8 15.872 14.336 1.536 25.6 1.536 39.936 3.072 44.544 0 86.528-3.072 124.928-9.728 6.656 18.944 16.896 36.352 29.184 51.712-46.592 8.704-98.304 13.312-154.112 12.288l-52.736-4.608c-31.232-8.192-62.464-14.336-94.208-19.456-148.992-48.128-262.144-137.728-316.928-278.528-31.744-75.264-22.528-188.928 6.144-257.536 62.464-140.8 183.808-230.4 344.064-270.336 67.072-17.408 183.808-25.6 256-4.608 52.736-48.128 158.208-96.256 252.928-99.328-17.408 31.744-33.792 62.464-51.2 94.208-8.192 22.528-15.872 46.592-24.064 70.656 22.528 15.872 45.056 31.744 67.072 46.592 59.392 45.056 103.936 112.128 134.144 185.344 37.376 90.112 16.384 218.112-23.552 285.184zM271.36 505.856c-31.744-12.8-46.592-24.064-54.272-59.392-11.264-46.592 14.336-121.856 55.808-118.272 59.392 4.608 67.072 116.736 35.328 158.208-6.656 11.264-19.456 15.872-36.864 19.456zM757.76 896l-148.48-226.816h145.92l-92.16-191.488L955.904 757.76h-175.104L890.88 896h-133.12z"  horiz-adv-x="1024" />

    
    <glyph glyph-name="wenzishuoming" unicode="&#58927;" d="M873.6 745.6C774.4 846.4 643.2 896 512 896 380.8 896 249.6 846.4 150.4 745.6c-200-200-200-524.8 0-724.8C249.6-78.39999999999998 380.8-128 512-128c131.2 0 262.4 49.6 361.6 150.4 200 200 200 523.2 0 723.2z m-35.2-688c-44.8-43.2-96-78.4-152-100.8-56-22.4-113.6-33.6-172.8-33.6-59.2 0-118.4 11.2-172.8 33.6-57.6 22.4-108.8 57.6-152 100.8-44.8 44.8-78.4 96-100.8 152-25.6 56-36.8 113.6-36.8 174.4 0 59.2 11.2 118.4 33.6 172.8 22.4 57.6 57.6 108.8 100.8 152 44.8 44.8 96 78.4 152 100.8 56 22.4 113.6 33.6 172.8 33.6 59.2 0 118.4-11.2 172.8-33.6 57.6-22.4 108.8-57.6 152-100.8s78.4-96 100.8-152c22.4-56 33.6-113.6 33.6-172.8 0-59.2-11.2-118.4-33.6-172.8-20.8-57.6-54.4-108.8-97.6-153.6zM512 648c-48 0-86.4-12.8-116.8-38.4-28.8-25.6-46.4-64-52.8-112l65.6-8c6.4 36.8 17.6 62.4 36.8 80 17.6 17.6 41.6 25.6 68.8 25.6 28.8 0 52.8-9.6 72-28.8 19.2-19.2 28.8-41.6 28.8-65.6 0-14.4-3.2-27.2-9.6-38.4-6.4-11.2-20.8-27.2-43.2-46.4-22.4-19.2-38.4-35.2-46.4-44.8-11.2-14.4-20.8-27.2-25.6-41.6-6.4-17.6-11.2-40-11.2-65.6 0-4.8 0-27.2 1.6-35.2h62.4c0 25.6 1.6 60.8 4.8 72 3.2 11.2 8 20.8 14.4 30.4 6.4 9.6 20.8 22.4 41.6 41.6 30.4 27.2 52.8 51.2 62.4 70.4 11.2 19.2 16 40 16 62.4 0 40-16 73.6-46.4 100.8-30.4 27.2-72 41.6-123.2 41.6z m-32-544h62.4v62.4H480v-62.4z"  horiz-adv-x="1024" />

    
    <glyph glyph-name="zanting" unicode="&#59070;" d="M128-128h170.72V896H128zM725.28 896v-1024H896V896z"  horiz-adv-x="1024" />

    
    <glyph glyph-name="qianjin" unicode="&#59071;" d="M80 896l768-427.2V896h84.8v-1024H848V299.20000000000005L80-128V896z m84.8-171.2v-683.2L848 384 164.8 724.8z"  horiz-adv-x="1024" />

    
    <glyph glyph-name="liulanguiji" unicode="&#59072;" d="M960.01872 90.72000000000003l-291.2 112v-119.04a45.28 45.28 0 0 0-44.8-45.92H198.09872a23.04 23.04 0 0 0-23.04 23.04 23.04 23.04 0 0 0 23.04 23.04H608.01872a16 16 0 0 1 16 16V668.16a16 16 0 0 1-16 16H62.25872a16 16 0 0 1-16-16v-568.32a16 16 0 0 1 16-16h42.24A23.04 23.04 0 0 0 128.01872 61.27999999999997a23.04 23.04 0 0 0-23.04-23.04H48.01872a48 48 0 0 0-48 48V684.16a45.12 45.12 0 0 0 43.84 46.4H624.01872a45.92 45.92 0 0 0 46.24-45.6v-118.56L960.01872 676s64 29.28 64-33.28v-516.8c0-61.92-64-35.2-64-35.2z m18.88 537.92l-309.44-114.56v-260.32l310.08-117.6zM193.77872 472.8a68.32 68.32 0 0 0 71.68-71.68 69.6 69.6 0 0 0-65.6-65.12A68.32 68.32 0 0 0 128.01872 407.04a69.6 69.6 0 0 0 65.76 65.76z m44.64 49.6h-49.6a237.28 237.28 0 0 0 138.72 107.84 20.8 20.8 0 0 0 26.08-20.16 18.4 18.4 0 0 0-13.76-17.6 200.64 200.64 0 0 1-101.44-70.08z m94.08-345.6a237.12 237.12 0 0 0-142.08 108.8H240.01872a200.64 200.64 0 0 1 101.44-70.24 18.4 18.4 0 0 0 13.76-17.6v-3.52a18.24 18.24 0 0 0-22.72-17.44z"  horiz-adv-x="1024" />

    
    <glyph glyph-name="houtui" unicode="&#59073;" d="M932.8-128l-768 427.2V-128H80V896h84.8v-427.2L932.8 896v-1024z m-768 512L848 43.200000000000045V724.8L164.8 384z"  horiz-adv-x="1024" />

    
    <glyph glyph-name="qiapianshangdeguanbi" unicode="&#59074;" d="M908.64 780.64a66.08 66.08 0 0 1-93.44 0L512 477.44 208.8 780.64a66.08 66.08 0 0 1-93.44 0 66.08 66.08 0 0 1 0-93.44L418.56 384 115.52 80.79999999999995a66.08 66.08 0 0 1 0-93.44 66.08 66.08 0 0 1 93.44 0L512 290.55999999999995l303.04-303.2a66.08 66.08 0 0 1 93.44 0 66.08 66.08 0 0 1 0 93.44L605.44 384l303.2 303.2a66.08 66.08 0 0 1 0 93.44z"  horiz-adv-x="1024" />

    
    <glyph glyph-name="weijielaidianguanli" unicode="&#59075;" d="M992.0292 125.76167099999998l-147.195308 147.675293a101.756757 101.756757 0 0 1-73.437659 31.99898 109.116522 109.116522 0 0 1-79.99745-31.99898l-60.638068-60.798062a874.692119 874.692119 0 0 0-164.794747 123.356068 899.011344 899.011344 0 0 0-123.196073 167.034676l60.318078 60.478072a108.796532 108.796532 0 0 1 1.599949 153.275115l-147.515298 147.195308a101.916751 101.916751 0 0 1-73.597655 31.99898 110.396481 110.396481 0 0 1-79.99745-31.99898 429.266317 429.266317 0 0 1-82.237378-114.716344 221.752932 221.752932 0 0 1-18.239419-70.397756c-20.159357-175.194416 56.79819-331.349438 265.591534-539.182813C513.324459-105.91094399999997 720.03787-127.99023999999997 787.075733-127.99023999999997a181.274222 181.274222 0 0 1 22.079296 1.119964 283.510963 283.510963 0 0 1 68.797807 17.919429A440.945945 440.945945 0 0 1 992.0292-27.833433000000014a110.396481 110.396481 0 0 1 31.99898 78.877486 104.79666 104.79666 0 0 1-31.99898 74.717618z m-44.478582-109.756501a382.067822 382.067822 0 0 0-94.077002-67.677843 226.552779 226.552779 0 0 0-53.438296-12.319607c-2.079934 0-214.873151-23.83924-486.544492 248.79207C119.577009 376.63367500000004 48.059289 517.909172 65.658728 672.784235a161.114864 161.114864 0 0 0 13.279577 51.518358A370.868179 370.868179 0 0 0 147.896107 819.019574a47.99847 47.99847 0 0 0 34.238908 14.079551 40.15872 40.15872 0 0 0 29.279067-12.479602l148.635262-148.635262a45.918536 45.918536 0 0 0-1.599949-63.997961l-75.517593-75.837582a31.99898 31.99898 0 0 1-9.119709-22.079296c0-28.639087 87.037226-157.114992 147.675293-218.073049C479.245545 234.078219 601.641644 146.08102399999996 635.240573 143.841095a31.99898 31.99898 0 0 1 24.319224 9.119709l75.517593 75.837583a47.99847 47.99847 0 0 0 34.238909 14.079551 39.998725 39.998725 0 0 0 29.279067-12.479602l147.995282-148.475267a42.558643 42.558643 0 0 0 13.279577-30.399031 47.99847 47.99847 0 0 0-12.319607-35.518868zM539.883612 693.423577l71.997705 72.637685v-291.830698a30.079041 30.079041 0 0 1 30.079041-30.079041h300.950408a30.079041 30.079041 0 1 1 0 60.158082H672.0394V765.261287l71.037735-71.83771a28.479092 28.479092 0 0 1 40.638705 0 29.279067 29.279067 0 0 1 0 41.118689l-118.396226 119.676186a30.079041 30.079041 0 0 1-7.039776 6.399796 28.479092 28.479092 0 0 1-37.118817-3.039903l-121.916113-123.196073a29.279067 29.279067 0 0 1 0-41.11869 28.479092 28.479092 0 0 1 40.638704 0.159995z"  horiz-adv-x="1025" />

    
    <glyph glyph-name="shipinliaotianhoutui" unicode="&#59080;" d="M567.532 534.469v208.125l-569.531-360 569.531-360v208.125l330.469-208.125v720l-330.469-208.125zM508.47 142.125l-390.938 240.469 390.938 240.469v-480.938zM837.532 142.125l-270 165.938v149.063l270 165.938v-480.938z"  horiz-adv-x="1024" />

    
    <glyph glyph-name="shipinguanbi" unicode="&#59081;" d="M512 896c283.2 0 512-228.8 512-512S795.2-128 512-128 0 100.8 0 384 228.8 896 512 896zM803.2 185.6l-91.2-91.2L512 292.8 313.6 92.8l-91.2 91.2L420.8 384 220.8 582.4l91.2 91.2L512 475.2l198.4 198.4 91.2-91.2L603.2 384l200-198.4z"  horiz-adv-x="1024" />

    
    <glyph glyph-name="shipinliaotianqianjin" unicode="&#59082;" d="M125.999 742.594v-720l330.469 208.125v-208.125l569.531 360-569.531 360v-208.125l-330.469 208.125zM515.53 623.063l389.531-240.469-389.531-240.469v480.938zM186.468 623.063l270-165.938v-147.656l-270-167.344v480.938z"  horiz-adv-x="1024" />

    
    <glyph glyph-name="yulan" unicode="&#58904;" d="M795.2 240c28.8 33.6 48 67.2 60.8 89.6 4.8 9.6 9.6 20.8 14.4 30.4 4.8 12.8 6.4 14.4 8 22.4-1.6 6.4-27.2 78.4-81.6 142.4C745.6 585.6 654.4 656 512 656s-233.6-72-284.8-131.2c-28.8-33.6-48-67.2-60.8-89.6-6.4-9.6-11.2-19.2-14.4-28.8-4.8-12.8-6.4-16-6.4-22.4s1.6-9.6 6.4-22.4c3.2-9.6 8-19.2 14.4-30.4 11.2-22.4 30.4-56 60.8-89.6 51.2-60.8 142.4-131.2 284.8-131.2 140.8-1.6 232 70.4 283.2 129.6z m-284.8-72c-121.6 0-200 60.8-243.2 113.6-25.6 30.4-43.2 60.8-52.8 80-3.2 8-8 16-11.2 22.4 3.2 8 6.4 14.4 11.2 22.4 9.6 20.8 27.2 49.6 52.8 80 44.8 51.2 121.6 113.6 243.2 113.6s200-60.8 243.2-113.6c33.6-40 54.4-80 64-104-3.2-8-6.4-14.4-11.2-22.4-9.6-20.8-27.2-49.6-52.8-80-43.2-51.2-121.6-112-243.2-112zM36.8 614.4c16 0 28.8 12.8 28.8 28.8V832h188.8c16 0 28.8 12.8 28.8 28.8S270.4 889.6 254.4 889.6H36.8C20.8 889.6 8 876.8 8 860.8v-217.6c0-16 12.8-28.8 28.8-28.8zM512 510.4c-68.8 0-126.4-56-126.4-126.4 0-68.8 56-126.4 126.4-126.4 68.8 0 126.4 56 126.4 126.4-1.6 68.8-57.6 126.4-126.4 126.4z m0-195.2c-38.4 0-68.8 30.4-68.8 68.8s30.4 68.8 68.8 68.8 68.8-30.4 68.8-68.8-32-68.8-68.8-68.8zM769.6 832h188.8v-188.8c0-16 12.8-28.8 28.8-28.8s28.8 12.8 28.8 28.8V859.2c0 16-12.8 28.8-28.8 28.8H769.6c-16 0-28.8-12.8-28.8-28.8 0-14.4 12.8-27.2 28.8-27.2z m246.4-921.6V126.4c0 16-12.8 28.8-28.8 28.8s-28.8-12.8-28.8-28.8V-64H771.2c-16 0-28.8-12.8-28.8-28.8s12.8-28.8 28.8-28.8h217.6c14.4 1.6 27.2 14.4 27.2 32 0-1.6 0-1.6 0 0zM254.4-64H65.6V126.4c0 16-12.8 28.8-28.8 28.8s-28.8-12.8-28.8-28.8v-217.6c0-8 3.2-14.4 8-19.2 4.8-4.8 12.8-8 19.2-8h217.6c16 0 28.8 12.8 28.8 28.8 1.6 12.8-11.2 25.6-27.2 25.6z"  horiz-adv-x="1024" />

    
    </font>
</defs>
</svg>
